<svg width="50" height="50" viewBox="0 0 50 50" fill="none" xmlns="http://www.w3.org/2000/svg">
<circle cx="25" cy="25" r="25" fill="#FCE9EB"/>
<path fill-rule="evenodd" clip-rule="evenodd" d="M35.6066 14.3933C34.9557 13.7425 33.9005 13.7425 33.2496 14.3933L25 22.6429L16.7504 14.3933C16.0995 13.7425 15.0443 13.7425 14.3934 14.3933C13.7425 15.0442 13.7425 16.0995 14.3934 16.7504L22.643 24.9999L14.3934 33.2495C13.7425 33.9004 13.7425 34.9557 14.3934 35.6065C15.0443 36.2574 16.0995 36.2574 16.7504 35.6065L25 27.357L33.2496 35.6065C33.9005 36.2574 34.9557 36.2574 35.6066 35.6065C36.2575 34.9557 36.2575 33.9004 35.6066 33.2495L27.357 24.9999L35.6066 16.7504C36.2575 16.0995 36.2575 15.0442 35.6066 14.3933Z" fill="#DD5257"/>
</svg>
