<svg width="26" height="26" viewBox="0 0 26 26" fill="none" xmlns="http://www.w3.org/2000/svg">
<path fill-rule="evenodd" clip-rule="evenodd" d="M7.58333 3.25H23.8333C25.025 3.25 26 4.225 26 5.41667V20.5833C26 21.775 25.025 22.75 23.8333 22.75H7.58333C6.83583 22.75 6.25083 22.36 5.86083 21.7858L0 13L5.86083 4.20333C6.25083 3.62917 6.83583 3.25 7.58333 3.25ZM9.75005 16.8891L9.75 16.8891L13.6391 12.9999L13.6392 12.9999L9.75005 9.11078L9.75 9.11073L11.2775 7.58323L15.1667 11.4724L19.0558 7.58323L20.5833 9.11073L20.5833 9.11078L16.6942 12.9999L16.6942 12.9999L20.5833 16.8891L20.5833 16.8891L19.0558 18.4166L15.1667 14.5274L11.2775 18.4166L9.75005 16.8891Z" fill="#555555"/>
</svg>
