<svg width="36" height="36" viewBox="0 0 36 36" fill="none" xmlns="http://www.w3.org/2000/svg">
<path d="M29.7001 17.5936C29.7001 16.9611 29.0701 16.419 28.4401 16.5094C28.1701 16.5094 27.9001 16.5997 27.7201 16.7804C27.7201 16.5997 27.8101 16.419 27.8101 16.148C27.7201 14.8831 26.6401 13.8893 25.2901 13.8893C24.8401 13.8893 24.3901 14.07 24.0301 14.341C24.1201 13.9797 24.2101 13.5279 24.2101 13.0762C24.1201 10.4561 21.8701 8.46846 19.2601 8.55881C16.6501 8.64916 14.5801 10.8175 14.7601 13.4376C14.2201 12.8955 13.4101 12.6244 12.6001 12.6244C10.9801 12.7148 9.72012 13.9797 9.81012 15.6059C9.45012 15.2445 9.00012 15.0638 8.46012 15.0638C7.47012 15.0638 6.75012 15.9673 6.75012 16.8708C6.75012 17.2322 6.84012 17.5032 7.02012 17.7743" stroke="#898E96" stroke-width="2" stroke-miterlimit="10" stroke-linecap="round" stroke-linejoin="round"/>
<path d="M5.8501 22.1108C5.8501 22.1108 6.2101 26.3572 6.4801 27.622C6.7501 28.8869 6.9301 29.6097 8.1901 29.7H18.0901H27.9901C29.2501 29.5193 29.4301 28.8869 29.7001 27.622C29.7901 26.3572 30.1501 22.1108 30.1501 22.1108" stroke="#898E96" stroke-width="2" stroke-miterlimit="10" stroke-linecap="round" stroke-linejoin="round"/>
<path d="M6.92999 11.7279C8.07322 11.7279 8.99999 10.838 8.99999 9.74027C8.99999 8.64252 8.07322 7.75262 6.92999 7.75262C5.78676 7.75262 4.85999 8.64252 4.85999 9.74027C4.85999 10.838 5.78676 11.7279 6.92999 11.7279Z" stroke="#898E96" stroke-width="1.5" stroke-miterlimit="10" stroke-linecap="round" stroke-linejoin="round"/>
<path d="M12.5099 6.30695C13.0567 6.30695 13.4999 5.90245 13.4999 5.40347C13.4999 4.9045 13.0567 4.5 12.5099 4.5C11.9631 4.5 11.5199 4.9045 11.5199 5.40347C11.5199 5.90245 11.9631 6.30695 12.5099 6.30695Z" stroke="#898E96" stroke-width="1.5" stroke-miterlimit="10" stroke-linecap="round" stroke-linejoin="round"/>
<path d="M29.34 11.8112C30.0856 11.8112 30.69 11.2449 30.69 10.5464C30.69 9.84779 30.0856 9.28149 29.34 9.28149C28.5944 9.28149 27.99 9.84779 27.99 10.5464C27.99 11.2449 28.5944 11.8112 29.34 11.8112Z" stroke="#898E96" stroke-width="1.5" stroke-miterlimit="10" stroke-linecap="round" stroke-linejoin="round"/>
<path d="M30.69 21.4784H5.30998C4.31998 21.4784 3.59998 20.6652 3.59998 19.7618C3.59998 18.7679 4.40998 18.0452 5.30998 18.0452H30.69C31.68 18.0452 32.4 18.8583 32.4 19.7618C32.4 20.6652 31.59 21.4784 30.69 21.4784Z" stroke="#898E96" stroke-width="2" stroke-miterlimit="10" stroke-linecap="round" stroke-linejoin="round"/>
</svg>
