<svg width="36" height="36" viewBox="0 0 36 36" fill="none" xmlns="http://www.w3.org/2000/svg">
<path d="M6.76807 4.17792V11.7873" stroke="#898E96" stroke-width="1.5" stroke-miterlimit="10" stroke-linecap="round" stroke-linejoin="round"/>
<path d="M23.952 12.2689C23.952 12.2689 24.912 12.2689 27.792 12.2689C30.672 12.2689 32.4 9.57188 32.4 9.57188V3.59998H18H3.59998V9.57188C3.59998 9.57188 5.32798 12.2689 8.20798 12.2689C11.088 12.2689 12.048 12.2689 12.048 12.2689" stroke="#898E96" stroke-width="2" stroke-miterlimit="10" stroke-linecap="round" stroke-linejoin="round"/>
<path d="M23.4721 8.70514V13.7138C23.4721 13.7138 26.7361 18.3372 27.8881 22.4791C28.9441 26.6209 29.0401 32.4001 29.0401 32.4001H17.9041H6.76807C6.76807 32.4001 6.86407 26.6209 7.92007 22.4791C8.97607 18.3372 12.3361 13.7138 12.3361 13.7138V8.70514" stroke="#898E96" stroke-width="2" stroke-miterlimit="10" stroke-linecap="round" stroke-linejoin="round"/>
<path d="M29.0399 4.17792V11.7873" stroke="#898E96" stroke-width="1.5" stroke-miterlimit="10" stroke-linecap="round" stroke-linejoin="round"/>
<path d="M20.9758 3.59998L17.9038 7.74178L14.8318 3.59998" stroke="#898E96" stroke-width="2" stroke-miterlimit="10" stroke-linecap="round" stroke-linejoin="round"/>
<path d="M16.8482 8.41602H14.8322V20.7451H16.8482V8.41602Z" stroke="#898E96" stroke-width="1.5" stroke-miterlimit="10" stroke-linecap="round" stroke-linejoin="round"/>
<path d="M18.8643 8.41602H16.8483V10.4388H18.8643V8.41602Z" stroke="#898E96" stroke-width="1.5" stroke-miterlimit="10" stroke-linecap="round" stroke-linejoin="round"/>
<path d="M18.9602 10.4386L22.0322 11.4981V7.35632L18.9602 8.41585V10.4386Z" stroke="#898E96" stroke-width="1.5" stroke-miterlimit="10" stroke-linecap="round" stroke-linejoin="round"/>
<path d="M17.3279 14.0026H23.1839" stroke="#898E96" stroke-width="2" stroke-miterlimit="10" stroke-linecap="round" stroke-linejoin="round"/>
<path d="M14.4 14.4H12.6" stroke="#898E96" stroke-width="2" stroke-miterlimit="10" stroke-linecap="round" stroke-linejoin="round"/>
</svg>
