<svg width="36" height="36" viewBox="0 0 36 36" fill="none" xmlns="http://www.w3.org/2000/svg">
<path d="M26.64 10.2997C24.03 10.2997 19.17 10.2997 16.65 10.2997C14.13 10.2997 4.77002 18.1999 4.77002 21.2095H31.23C31.23 21.2095 30.96 14.532 29.97 12.5569C29.25 11.2402 28.26 10.2997 26.64 10.2997Z" stroke="#898E96" stroke-width="2" stroke-miterlimit="10" stroke-linecap="round" stroke-linejoin="round"/>
<path d="M24.9299 14.0617C23.7599 14.0617 19.9799 14.0617 18.8999 14.0617C17.8199 14.0617 15.2999 16.4129 15.2999 17.3534H26.9999C26.9999 17.3534 26.9099 15.2843 26.4599 14.7201C26.0999 14.3439 25.7399 14.0617 24.9299 14.0617Z" stroke="#898E96" stroke-width="2" stroke-miterlimit="10" stroke-linecap="round" stroke-linejoin="round"/>
<path d="M9.49852 13.5817L8.85067 12.7488C8.66271 12.3765 8.74269 11.9045 9.1866 11.6128L12.3759 9.19325C12.7298 8.90352 13.2697 8.89204 13.4556 9.17029L14.2874 10.1874" stroke="#898E96" stroke-width="2" stroke-miterlimit="10" stroke-linecap="round" stroke-linejoin="round"/>
<mask id="path-4-inside-1_427_11190" fill="white">
<path d="M31.95 26.1001H4.04998C3.77998 26.1001 3.59998 25.912 3.59998 25.6299V24.6894C3.59998 24.4072 3.77998 24.2191 4.04998 24.2191H31.95C32.22 24.2191 32.4 24.4072 32.4 24.6894V25.6299C32.4 25.912 32.22 26.1001 31.95 26.1001Z"/>
</mask>
<path d="M31.95 26.1001H4.04998C3.77998 26.1001 3.59998 25.912 3.59998 25.6299V24.6894C3.59998 24.4072 3.77998 24.2191 4.04998 24.2191H31.95C32.22 24.2191 32.4 24.4072 32.4 24.6894V25.6299C32.4 25.912 32.22 26.1001 31.95 26.1001Z" fill="#898E96"/>
<path d="M31.95 24.1001H4.04998V28.1001H31.95V24.1001ZM4.04998 24.1001C4.39665 24.1001 4.82808 24.2321 5.1687 24.588C5.50174 24.936 5.59998 25.3422 5.59998 25.6299H1.59998C1.59998 26.1997 1.78821 26.8409 2.27875 27.3536C2.77687 27.8741 3.4333 28.1001 4.04998 28.1001V24.1001ZM5.59998 25.6299V24.6894H1.59998V25.6299H5.59998ZM5.59998 24.6894C5.59998 24.9771 5.50174 25.3832 5.16871 25.7312C4.82809 26.0871 4.39665 26.2191 4.04998 26.2191V22.2191C3.4333 22.2191 2.77686 22.4451 2.27874 22.9657C1.78821 23.4783 1.59998 24.1195 1.59998 24.6894H5.59998ZM4.04998 26.2191H31.95V22.2191H4.04998V26.2191ZM31.95 26.2191C31.6033 26.2191 31.1719 26.0871 30.8312 25.7312C30.4982 25.3832 30.4 24.9771 30.4 24.6894H34.4C34.4 24.1195 34.2117 23.4783 33.7212 22.9657C33.2231 22.4451 32.5666 22.2191 31.95 22.2191V26.2191ZM30.4 24.6894V25.6299H34.4V24.6894H30.4ZM30.4 25.6299C30.4 25.3422 30.4982 24.936 30.8312 24.588C31.1719 24.2321 31.6033 24.1001 31.95 24.1001V28.1001C32.5666 28.1001 33.2231 27.8741 33.7212 27.3536C34.2117 26.8409 34.4 26.1997 34.4 25.6299H30.4Z" fill="#898E96" mask="url(#path-4-inside-1_427_11190)"/>
</svg>
