<svg width="36" height="36" viewBox="0 0 36 36" fill="none" xmlns="http://www.w3.org/2000/svg">
<path d="M25.1855 7.48825C27.302 7.85927 28.6364 8.39661 28.6364 8.99793V30.8371H7.36365V8.99793C7.36365 8.37103 8.82068 7.8081 11.1366 7.43707" stroke="#898E96" stroke-width="2" stroke-miterlimit="10" stroke-linejoin="round"/>
<path d="M10.1553 7.65402C11.7043 6.74319 13.0387 3.76367 14.0049 3.76367C14.9712 3.76367 17.9926 3.76367 17.9926 3.76367C17.9926 3.76367 21.014 3.76367 21.9803 3.76367C22.9465 3.76367 24.2809 6.74319 25.8299 7.65402" stroke="#898E96" stroke-width="2" stroke-miterlimit="10"/>
<path d="M24.7407 7.65433L21.5812 12.1004L18.7592 8.81217L22.3327 3.99554" stroke="#898E96" stroke-width="2" stroke-miterlimit="10" stroke-linejoin="round"/>
<path d="M11.2441 7.65433L14.4189 12.1004L17.2257 8.81217L13.6674 3.99554" stroke="#898E96" stroke-width="2" stroke-miterlimit="10" stroke-linejoin="round"/>
<path d="M17.9923 8.96674V30.2395" stroke="#898E96" stroke-width="2" stroke-miterlimit="10" stroke-linejoin="round"/>
<path d="M9.97083 15.836V19.6183V19.6492C10.1855 20.3439 11.3972 20.8842 12.8389 20.8842C14.2806 20.8842 15.5076 20.3439 15.7069 19.6492V19.6183V15.836H9.97083Z" stroke="#898E96" stroke-width="2" stroke-miterlimit="10"/>
</svg>
