<svg width="36" height="36" viewBox="0 0 36 36" fill="none" xmlns="http://www.w3.org/2000/svg">
<path d="M25.02 29.4506V31.2506" stroke="#898E96" stroke-width="1.5" stroke-miterlimit="10" stroke-linecap="round" stroke-linejoin="round"/>
<path d="M22.6799 29.4506V31.2506" stroke="#898E96" stroke-width="1.5" stroke-miterlimit="10" stroke-linecap="round" stroke-linejoin="round"/>
<path d="M20.3401 29.4506V31.2506" stroke="#898E96" stroke-width="1.5" stroke-miterlimit="10" stroke-linecap="round" stroke-linejoin="round"/>
<path d="M18 29.4506V31.2506" stroke="#898E96" stroke-width="1.5" stroke-miterlimit="10" stroke-linecap="round" stroke-linejoin="round"/>
<path d="M18 28.9301H7.19995C7.19995 28.9301 7.19995 13.9229 7.19995 13.0554C7.19995 12.1879 8.81995 11.4072 8.81995 10.7132C8.81995 10.0193 8.81995 3.59998 8.81995 3.59998H12.33L18 8.6313L23.67 3.59998H27.18C27.18 3.59998 27.18 10.0193 27.18 10.7132C27.18 11.4072 28.8 12.1879 28.8 13.0554C28.8 13.9229 28.8 28.9301 28.8 28.9301H18Z" stroke="#898E96" stroke-width="2" stroke-miterlimit="10" stroke-linecap="round" stroke-linejoin="round"/>
<path d="M9.71997 4.81433L18 12.1011L26.28 4.81433" stroke="#898E96" stroke-width="2" stroke-miterlimit="10" stroke-linecap="round" stroke-linejoin="round"/>
<path d="M7.92004 28.9301V32.3999H17.82H27.72V28.9301" stroke="#898E96" stroke-width="2" stroke-miterlimit="10" stroke-linecap="round" stroke-linejoin="round"/>
<path d="M10.9799 29.4506V31.2506" stroke="#898E96" stroke-width="1.5" stroke-miterlimit="10" stroke-linecap="round" stroke-linejoin="round"/>
<path d="M13.3199 29.4506V31.2506" stroke="#898E96" stroke-width="1.5" stroke-miterlimit="10" stroke-linecap="round" stroke-linejoin="round"/>
<path d="M15.6599 29.4506V31.2506" stroke="#898E96" stroke-width="1.5" stroke-miterlimit="10" stroke-linecap="round" stroke-linejoin="round"/>
<path d="M20.5299 15.3565H25.7299V17.5951C25.7299 19.1538 24.589 20.2963 23.1299 20.2963C21.7694 20.2963 20.5299 19.1319 20.5299 17.5951V15.3565Z" stroke="#898E96" stroke-width="2" stroke-miterlimit="10" stroke-linecap="round" stroke-linejoin="round"/>
</svg>
