<svg width="36" height="36" viewBox="0 0 36 36" fill="none" xmlns="http://www.w3.org/2000/svg">
<path d="M17.9922 11.7206C14.53 11.7206 11.7198 8.99655 11.7198 5.64044" stroke="#898E96" stroke-width="2" stroke-miterlimit="10" stroke-linecap="round" stroke-linejoin="round"/>
<path d="M8.81656 16.2358L7.23296 17.1087L3.59998 14.3847L4.70229 12.2476C4.70229 8.48517 7.85398 5.43005 11.7354 5.43005" stroke="#898E96" stroke-width="2" stroke-miterlimit="10" stroke-linecap="round" stroke-linejoin="round"/>
<path d="M10.5863 12.7292C9.87208 13.4065 9.35974 14.3998 9.35974 15.9349C9.35974 16.8228 9.54605 17.6204 9.84103 18.1923L11.0055 25.4764C11.0055 25.4764 9.35974 29.1336 9.35974 30.9997H17.992" stroke="#898E96" stroke-width="2" stroke-miterlimit="10" stroke-linecap="round" stroke-linejoin="round"/>
<path d="M17.9921 11.7206C21.4543 11.7206 24.2645 8.99655 24.2645 5.64044" stroke="#898E96" stroke-width="2" stroke-miterlimit="10" stroke-linecap="round" stroke-linejoin="round"/>
<path d="M27.1835 16.2367L28.7671 17.0946L32.4 14.3705L31.2977 12.2335C31.2977 8.47101 28.146 5.41589 24.2646 5.41589" stroke="#898E96" stroke-width="2" stroke-miterlimit="10" stroke-linecap="round" stroke-linejoin="round"/>
<path d="M25.4133 12.7292C26.1275 13.4065 26.6399 14.3998 26.6399 15.9349C26.6399 16.8228 26.4536 17.6204 26.1586 18.1923L24.9942 25.4764C24.9942 25.4764 26.6399 29.1336 26.6399 30.9997H17.9921" stroke="#898E96" stroke-width="2" stroke-miterlimit="10" stroke-linecap="round" stroke-linejoin="round"/>
<path d="M11.6999 5.3999H24.5706" stroke="#898E96" stroke-width="2" stroke-miterlimit="10" stroke-linecap="round" stroke-linejoin="round"/>
<path d="M18 17.0999C18.497 17.0999 18.9 16.697 18.9 16.1999C18.9 15.7029 18.497 15.2999 18 15.2999C17.5029 15.2999 17.1 15.7029 17.1 16.1999C17.1 16.697 17.5029 17.0999 18 17.0999Z" fill="#898E96"/>
<path d="M18 21.5999C18.497 21.5999 18.9 21.197 18.9 20.6999C18.9 20.2029 18.497 19.7999 18 19.7999C17.5029 19.7999 17.1 20.2029 17.1 20.6999C17.1 21.197 17.5029 21.5999 18 21.5999Z" fill="#898E96"/>
<path d="M18 26.0999C18.497 26.0999 18.9 25.697 18.9 25.1999C18.9 24.7029 18.497 24.2999 18 24.2999C17.5029 24.2999 17.1 24.7029 17.1 25.1999C17.1 25.697 17.5029 26.0999 18 26.0999Z" fill="#898E96"/>
</svg>
