<svg width="36" height="36" viewBox="0 0 36 36" fill="none" xmlns="http://www.w3.org/2000/svg">
<path d="M12.8561 5.31557C12.8561 5.31557 12.0076 4.77177 9.84659 5.57388C7.68561 6.37599 7.5 7.45 7.5 7.45V10.373C9.03788 11.0935 10.125 12.6705 10.125 14.5195C10.125 16.3684 9.05114 17.959 7.5 18.666V29.3109L12.8561 31.4862L17.9602 28.6856L18 18.8291L12.8561 5.31557Z" stroke="#898E96" stroke-width="2" stroke-miterlimit="10" stroke-linecap="round" stroke-linejoin="round"/>
<path d="M23.9928 5.07099C22.4417 4.71752 20.3205 4.5 18.0004 4.5C15.7466 4.5 13.7049 4.70393 12.1671 5.0438" stroke="#898E96" stroke-width="2" stroke-miterlimit="10" stroke-linecap="round" stroke-linejoin="round"/>
<path d="M23.1439 5.31551C23.1439 5.31551 23.9924 4.7717 26.1534 5.57382C28.3144 6.37593 28.5 7.46354 28.5 7.46354V10.3865C26.9621 11.107 25.875 12.6841 25.875 14.533C25.875 16.3819 26.9489 17.9726 28.5 18.6795V29.3245L23.1439 31.4997L18.0398 28.6991L18 18.8426L23.1439 5.31551Z" stroke="#898E96" stroke-width="2" stroke-miterlimit="10" stroke-linecap="round" stroke-linejoin="round"/>
</svg>
