<svg width="36" height="36" viewBox="0 0 36 36" fill="none" xmlns="http://www.w3.org/2000/svg">
<path d="M12.4102 4.43735C13.4648 3.80438 14.4141 1.79999 15.0469 1.79999C15.6797 1.79999 17.7891 1.79999 17.7891 1.79999C17.7891 1.79999 19.8984 1.79999 20.5312 1.79999C21.1641 1.79999 22.1133 3.80438 23.168 4.43735" stroke="#898E96" stroke-width="2" stroke-miterlimit="10"/>
<path d="M23.4994 3.47301L20.3203 7.49664L18.4219 5.28126L20.8477 2.01093" stroke="#898E96" stroke-width="2" stroke-miterlimit="10" stroke-linejoin="round"/>
<path d="M13.2539 4.4373L15.3633 7.49664L17.3672 5.28126L14.8359 2.01093" stroke="#898E96" stroke-width="2" stroke-miterlimit="10" stroke-linejoin="round"/>
<path d="M17.8945 5.3866V16.358" stroke="#898E96" stroke-width="2" stroke-miterlimit="10" stroke-linejoin="round"/>
<path d="M17.8945 19.3123V35.031" stroke="#898E96" stroke-width="2" stroke-miterlimit="10" stroke-linejoin="round"/>
<path d="M17.8941 16.3581H12.3043C12.3043 16.3581 9.45661 7.70758 10.8277 5.91418C12.1988 4.12077 12.9371 4.22627 12.9371 4.22627" stroke="#898E96" stroke-width="2" stroke-miterlimit="10" stroke-linejoin="round"/>
<path d="M23.6953 16.3585H12.0938V18.9959H23.6953V16.3585Z" stroke="#898E96" stroke-width="2" stroke-miterlimit="10" stroke-linejoin="round"/>
<path d="M12.3047 18.9959C12.3047 18.9959 9.98438 22.7937 9.98438 27.2245C9.98438 31.6553 9.98438 34.9256 9.98438 34.9256H18" stroke="#898E96" stroke-width="2" stroke-miterlimit="10" stroke-linejoin="round"/>
<path d="M11.4609 5.49231C9.77344 5.91429 8.61328 7.49671 7.98047 11.4C7.34766 15.3033 4.5 27.5407 4.5 27.5407H8.29687L11.5664 14.0374" stroke="#898E96" stroke-width="2" stroke-miterlimit="10" stroke-linejoin="round"/>
<path d="M5.02734 25.0088H8.82422" stroke="#898E96" stroke-width="2" stroke-miterlimit="10" stroke-linejoin="round"/>
<path d="M18.1055 16.3581H23.6953C23.6953 16.3581 26.543 7.70758 25.1719 5.91418C23.8008 4.12077 23.0625 4.22627 23.0625 4.22627" stroke="#898E96" stroke-width="2" stroke-miterlimit="10" stroke-linejoin="round"/>
<path d="M23.6953 18.9959C23.6953 18.9959 26.0156 22.7937 26.0156 27.2245C26.0156 31.6553 26.0156 34.9256 26.0156 34.9256H18" stroke="#898E96" stroke-width="2" stroke-miterlimit="10" stroke-linejoin="round"/>
<path d="M24.5391 5.49231C26.2266 5.91429 27.2812 7.49671 28.0195 11.4C28.7578 15.3033 31.5 27.5407 31.5 27.5407H27.7031L24.4336 14.0374" stroke="#898E96" stroke-width="2" stroke-miterlimit="10" stroke-linejoin="round"/>
<path d="M30.9727 25.0088H27.1758" stroke="#898E96" stroke-width="2" stroke-miterlimit="10" stroke-linejoin="round"/>
</svg>
