<svg width="36" height="36" viewBox="0 0 36 36" fill="none" xmlns="http://www.w3.org/2000/svg">
<path d="M17.9999 33.0597H22.3493C24.744 31.1228 26.0999 26.8494 26.0999 22.7451C26.0999 18.6254 24.8673 15.013 22.4549 13.0915L22.4725 12.5689C22.6486 8.64902 23.529 5.12884 26.0999 3.92983C25.0962 3.39181 23.6347 2.9614 21.8914 2.70007C20.9582 3.68388 19.5847 4.3295 17.9999 4.3295C16.4151 4.3295 15.0416 3.68388 14.126 2.70007C12.3827 2.9614 10.9212 3.39181 9.8999 3.9452C12.4708 5.14422 13.3512 8.6644 13.5273 12.5842L13.5449 13.1069C11.1325 15.0284 9.8999 18.6254 9.8999 22.7605C9.8999 26.8494 11.2734 31.1228 13.6506 33.0751H17.9999V33.0597Z" stroke="#898E96" stroke-width="2" stroke-miterlimit="10" stroke-linecap="round" stroke-linejoin="round"/>
<path d="M23.7932 29.6952H12.2947" stroke="#898E96" stroke-width="2" stroke-miterlimit="10" stroke-linecap="round" stroke-linejoin="round"/>
<path d="M22.1731 13.3066H13.7209" stroke="#898E96" stroke-width="2" stroke-miterlimit="10" stroke-linecap="round" stroke-linejoin="round"/>
</svg>
