<svg width="36" height="36" viewBox="0 0 36 36" fill="none" xmlns="http://www.w3.org/2000/svg">
<path d="M31.6099 13.5H19.2949V23.2199H31.6099V13.5Z" stroke="#898E96" stroke-width="2" stroke-miterlimit="10" stroke-linecap="round" stroke-linejoin="round"/>
<path d="M19.2949 15.1375H1.80005V21.5822H19.2949V15.1375Z" stroke="#898E96" stroke-width="2" stroke-miterlimit="10" stroke-linecap="round" stroke-linejoin="round"/>
<path d="M34.2001 15.1375H31.6101V21.5822H34.2001V15.1375Z" stroke="#898E96" stroke-width="2" stroke-miterlimit="10" stroke-linecap="round" stroke-linejoin="round"/>
<path d="M27.9503 18.36H19.2948" stroke="#898E96" stroke-width="2" stroke-miterlimit="10" stroke-linecap="round" stroke-linejoin="round"/>
<path d="M16.3039 18.3601C16.3039 18.5466 16.1667 18.6525 16.052 18.6525C15.9372 18.6525 15.8 18.5466 15.8 18.3601C15.8 18.1736 15.9372 18.0677 16.052 18.0677C16.1667 18.0677 16.3039 18.1736 16.3039 18.3601Z" fill="#898E96" stroke="#898E96"/>
<path d="M10.652 19.1525C11.0672 19.1525 11.4039 18.7977 11.4039 18.3601C11.4039 17.9225 11.0672 17.5677 10.652 17.5677C10.2367 17.5677 9.90002 17.9225 9.90002 18.3601C9.90002 18.7977 10.2367 19.1525 10.652 19.1525Z" fill="#898E96"/>
<path d="M5.25925 19.1525C5.67453 19.1525 6.01118 18.7977 6.01118 18.3601C6.01118 17.9225 5.67453 17.5677 5.25925 17.5677C4.84397 17.5677 4.50732 17.9225 4.50732 18.3601C4.50732 18.7977 4.84397 19.1525 5.25925 19.1525Z" fill="#898E96"/>
</svg>
