<svg width="36" height="36" viewBox="0 0 36 36" fill="none" xmlns="http://www.w3.org/2000/svg">
<path d="M5.40002 24.1387C5.40002 23.7299 11.0438 23.3998 18 23.3998C24.9563 23.3998 30.6 23.7299 30.6 24.1387V17.0174C30.6 11.5154 24.9563 7.0509 18 7.0509C11.0438 7.0509 5.40002 11.5154 5.40002 17.0174V24.1387Z" stroke="#898E96" stroke-width="2" stroke-miterlimit="10" stroke-linecap="round" stroke-linejoin="round"/>
<path d="M17.9836 7.0509C17.9836 7.0509 22.9383 11.0595 24.0704 15.8384C25.2844 20.9475 24.661 23.5098 24.661 23.5098" stroke="#898E96" stroke-width="2" stroke-miterlimit="10" stroke-linecap="round" stroke-linejoin="round"/>
<path d="M17.9837 7.0509C17.9837 7.0509 13.029 11.0595 11.897 15.8384C10.6829 20.9475 11.3063 23.5098 11.3063 23.5098" stroke="#898E96" stroke-width="2" stroke-miterlimit="10" stroke-linecap="round" stroke-linejoin="round"/>
<path d="M21.9047 17.1428H14.0789V20.5698H21.9047V17.1428Z" stroke="#898E96" stroke-width="2" stroke-miterlimit="10" stroke-linecap="round" stroke-linejoin="round"/>
<path d="M16.7203 6.61047C16.7203 5.93451 17.2781 5.40002 17.9836 5.40002C18.6891 5.40002 19.2469 5.93451 19.2469 6.61047" stroke="#898E96" stroke-width="2" stroke-miterlimit="10" stroke-linecap="round" stroke-linejoin="round"/>
<path d="M6.43359 24.138V30.0488C6.43359 30.4732 6.89297 30.7247 7.28672 30.5361C9.00937 29.7029 13.1437 29.1213 17.9672 29.1213C22.7906 29.1213 26.925 29.7029 28.6477 30.5361C29.0414 30.7247 29.5008 30.4732 29.5008 30.0488V24.138" stroke="#898E96" stroke-width="2" stroke-miterlimit="10" stroke-linecap="round" stroke-linejoin="round"/>
<path d="M8.48438 24.2959V27.4242C8.48438 27.77 8.86172 27.9744 9.18984 27.8172C10.6008 27.1255 14.0133 26.6539 17.9836 26.6539C21.9539 26.6539 25.35 27.1412 26.7773 27.8172C27.1055 27.9744 27.4828 27.77 27.4828 27.4242V24.2959" stroke="#898E96" stroke-width="2" stroke-miterlimit="10" stroke-linecap="round" stroke-linejoin="round"/>
</svg>
