<svg width="36" height="36" viewBox="0 0 36 36" fill="none" xmlns="http://www.w3.org/2000/svg">
<path d="M16.38 4.76996H19.62" stroke="#898E96" stroke-width="2" stroke-miterlimit="10"/>
<path d="M28.62 4.76996H29.7C30.69 4.76996 31.5 5.57996 31.5 6.56996V29.97C31.5 30.96 30.69 31.77 29.7 31.77H6.3C5.31 31.77 4.5 30.96 4.5 29.97V6.56996C4.5 5.57996 5.31 4.76996 6.3 4.76996H7.29" stroke="#898E96" stroke-width="2" stroke-miterlimit="10"/>
<path d="M27.27 8.99998H20.97C19.98 8.99998 19.17 8.18998 19.17 7.19998V5.39998C19.17 4.40998 19.98 3.59998 20.97 3.59998H27.27C28.26 3.59998 29.07 4.40998 29.07 5.39998V7.19998C29.07 8.18998 28.26 8.99998 27.27 8.99998Z" stroke="#898E96" stroke-width="2" stroke-miterlimit="10"/>
<path d="M15.12 8.99998H8.82002C7.83002 8.99998 7.02002 8.18998 7.02002 7.19998V5.39998C7.02002 4.40998 7.83002 3.59998 8.82002 3.59998H15.12C16.11 3.59998 16.92 4.40998 16.92 5.39998V7.19998C16.92 8.18998 16.11 8.99998 15.12 8.99998Z" stroke="#898E96" stroke-width="2" stroke-miterlimit="10"/>
<path d="M31.5 11.52L4.5 16.11C4.5 16.11 6.3 20.07 7.29 21.06C8.28 22.05 9.99 22.59 12.69 21.06C15.39 19.53 31.5 11.52 31.5 11.52Z" stroke="#898E96" stroke-width="2" stroke-miterlimit="10" stroke-linecap="round" stroke-linejoin="round"/>
</svg>
