<svg width="36" height="36" viewBox="0 0 36 36" fill="none" xmlns="http://www.w3.org/2000/svg">
<path d="M7.91992 19.35C7.91992 20.79 9.08992 21.96 10.5299 21.96H27.9899C29.4299 21.96 30.5999 20.79 30.5999 19.35V14.31H7.91992V19.35Z" stroke="#898E96" stroke-width="2" stroke-miterlimit="10"/>
<path d="M22.41 4.5C26.46 4.5 30.6 7.74 30.6 11.7V14.31H18.27L22.41 4.5Z" stroke="#898E96" stroke-width="2" stroke-miterlimit="10" stroke-linecap="round" stroke-linejoin="round"/>
<path d="M3.59998 10.26H6.38997L8.09997 14.49" stroke="#898E96" stroke-width="2" stroke-miterlimit="10" stroke-linecap="round" stroke-linejoin="round"/>
<path d="M24.21 31.5C25.6514 31.5 26.82 30.3315 26.82 28.89C26.82 27.4486 25.6514 26.28 24.21 26.28C22.7685 26.28 21.6 27.4486 21.6 28.89C21.6 30.3315 22.7685 31.5 24.21 31.5Z" stroke="#898E96" stroke-width="2" stroke-miterlimit="10" stroke-linecap="round" stroke-linejoin="round"/>
<path d="M13.77 31.5C15.2115 31.5 16.38 30.3315 16.38 28.89C16.38 27.4486 15.2115 26.28 13.77 26.28C12.3286 26.28 11.16 27.4486 11.16 28.89C11.16 30.3315 12.3286 31.5 13.77 31.5Z" stroke="#898E96" stroke-width="2" stroke-miterlimit="10" stroke-linecap="round" stroke-linejoin="round"/>
<path d="M16.11 21.96L22.41 26.91" stroke="#898E96" stroke-width="2" stroke-miterlimit="10" stroke-linecap="round" stroke-linejoin="round"/>
<path d="M22.41 21.96L16.11 26.91" stroke="#898E96" stroke-width="2" stroke-miterlimit="10" stroke-linecap="round" stroke-linejoin="round"/>
</svg>
