<svg width="36" height="36" viewBox="0 0 36 36" fill="none" xmlns="http://www.w3.org/2000/svg">
<path d="M6.39197 27.028V28.7155" stroke="#898E96" stroke-width="1.5" stroke-miterlimit="10" stroke-linecap="round" stroke-linejoin="round"/>
<path d="M15.8358 4.83746V6.52496" stroke="#898E96" stroke-width="1.5" stroke-miterlimit="10" stroke-linecap="round" stroke-linejoin="round"/>
<path d="M12.126 29.5593V31.2468" stroke="#898E96" stroke-width="1.5" stroke-miterlimit="10" stroke-linecap="round" stroke-linejoin="round"/>
<path d="M14.4865 29.5593V31.2468" stroke="#898E96" stroke-width="1.5" stroke-miterlimit="10" stroke-linecap="round" stroke-linejoin="round"/>
<path d="M16.8474 29.5593V31.2468" stroke="#898E96" stroke-width="1.5" stroke-miterlimit="10" stroke-linecap="round" stroke-linejoin="round"/>
<path d="M26.5443 28.9688H31.7721L31.8564 27.1125C31.8564 27.1125 32.3623 26.3531 32.278 24.1594C32.1937 21.9656 27.8091 11.5875 27.3032 10.2375C26.7129 8.55 25.7854 7.45312 24.099 7.03125C22.5813 6.69375 21.9067 6.60938 21.9067 6.60938V4.5H17.9437H13.9807V6.60938C13.9807 6.60938 13.3905 6.60938 11.8727 7.03125C10.102 7.45312 9.17453 8.55 8.58429 10.2375C8.07838 11.5875 3.69377 21.8813 3.60946 24.075C3.52514 26.2688 4.03105 27.1125 4.03105 27.1125L4.11537 28.9688H9.34316" stroke="#898E96" stroke-width="2" stroke-miterlimit="10" stroke-linejoin="round"/>
<path d="M24.3518 13.1061C24.3518 13.1061 26.7971 27.1968 26.8814 28.1249C26.9657 29.053 26.5441 30.8249 26.2068 31.4999H17.8592H9.51163C9.17436 30.7405 8.75276 28.9686 8.83708 28.1249C8.9214 27.2811 11.3667 13.1061 11.3667 13.1061" stroke="#898E96" stroke-width="2" stroke-miterlimit="10" stroke-linecap="round" stroke-linejoin="round"/>
<path d="M29.4955 27.028V28.7155" stroke="#898E96" stroke-width="1.5" stroke-miterlimit="10" stroke-linecap="round" stroke-linejoin="round"/>
<path d="M20.0516 4.83746V6.52496" stroke="#898E96" stroke-width="1.5" stroke-miterlimit="10" stroke-linecap="round" stroke-linejoin="round"/>
<path d="M17.9437 4.83746V6.52496" stroke="#898E96" stroke-width="1.5" stroke-miterlimit="10" stroke-linecap="round" stroke-linejoin="round"/>
<path d="M23.7615 29.5593V31.2468" stroke="#898E96" stroke-width="1.5" stroke-miterlimit="10" stroke-linecap="round" stroke-linejoin="round"/>
<path d="M21.401 29.5593V31.2468" stroke="#898E96" stroke-width="1.5" stroke-miterlimit="10" stroke-linecap="round" stroke-linejoin="round"/>
<path d="M19.0399 29.5593V31.2468" stroke="#898E96" stroke-width="1.5" stroke-miterlimit="10" stroke-linecap="round" stroke-linejoin="round"/>
<path d="M11.7885 14.5406H24.4363" stroke="#898E96" stroke-width="2" stroke-miterlimit="10" stroke-linecap="round" stroke-linejoin="round"/>
<path d="M10.5237 18.7593H25.3639" stroke="#898E96" stroke-width="2" stroke-miterlimit="10" stroke-linecap="round" stroke-linejoin="round"/>
</svg>
