<svg width="36" height="36" viewBox="0 0 36 36" fill="none" xmlns="http://www.w3.org/2000/svg">
<path d="M25.2393 4.07123H10.158V6.47346H25.2393V4.07123Z" stroke="#898E96" stroke-width="2" stroke-miterlimit="10" stroke-linecap="round" stroke-linejoin="round"/>
<path d="M25.2513 6.45966C25.6608 8.12594 25.9258 11.3335 25.9258 13.5969C25.9258 15.8603 25.9258 31.4817 25.9258 31.4817H19.4572C19.4572 31.4817 18.0358 20.8314 17.9635 18.9707C17.8913 17.11 17.6985 14.7772 17.6985 14.7772C17.6985 14.7772 17.4938 17.1239 17.4215 18.9846C17.3492 20.8453 15.9278 31.4956 15.9278 31.4956H9.47125C9.47125 31.4956 9.47125 15.8742 9.47125 13.6108C9.47125 11.3474 9.74831 8.13983 10.1458 6.47354" stroke="#898E96" stroke-width="2" stroke-miterlimit="10" stroke-linecap="round" stroke-linejoin="round"/>
<path d="M12.9525 6.45966C12.9525 9.97274 11.6998 12.8193 10.1579 12.8193" stroke="#898E96" stroke-width="2" stroke-miterlimit="10" stroke-linecap="round" stroke-linejoin="round"/>
<path d="M22.4449 6.45966C22.4449 9.97274 23.6977 12.8193 25.2396 12.8193" stroke="#898E96" stroke-width="2" stroke-miterlimit="10" stroke-linecap="round" stroke-linejoin="round"/>
<path d="M17.6986 6.89001V11.1529" stroke="#898E96" stroke-width="2" stroke-miterlimit="10" stroke-linecap="round" stroke-linejoin="round"/>
</svg>
