<svg width="36" height="36" viewBox="0 0 36 36" fill="none" xmlns="http://www.w3.org/2000/svg">
<path d="M14.9052 5.75598C15.2873 6.27924 16.9226 6.57824 18.0077 6.57824V8.32741C18.0077 8.32741 16.8462 8.50681 15.7611 8.07326C14.8594 7.71445 14.6301 7.32575 14.6301 7.32575L14.9052 5.75598Z" fill="#898E96" stroke="#898E96" stroke-miterlimit="10" stroke-linecap="round" stroke-linejoin="round"/>
<path d="M14.6149 7.16119C11.7417 7.16119 9.70898 9.29907 9.70898 11.9452C9.70898 13.5001 10.1369 15.324 11.3749 16.206L17.6105 16.2808" stroke="#898E96" stroke-width="2" stroke-miterlimit="10" stroke-linecap="round" stroke-linejoin="round"/>
<path d="M10.4728 23.4567C9.99905 23.4567 9.60168 21.857 9.60168 19.8686C9.60168 17.8802 9.98377 16.2806 10.4728 16.2806" stroke="#898E96" stroke-width="2" stroke-miterlimit="10" stroke-linecap="round" stroke-linejoin="round"/>
<path d="M18.0075 23.4567H10.4728C9.99905 23.4567 9.60168 24.8919 9.60168 26.656C9.60168 28.4201 9.98377 29.8553 10.4728 29.8553H18.0075" stroke="#898E96" stroke-width="2" stroke-miterlimit="10" stroke-linecap="round" stroke-linejoin="round"/>
<path d="M10.4729 30.1395V31.4999H18.0076" stroke="#898E96" stroke-width="2" stroke-miterlimit="10" stroke-linecap="round" stroke-linejoin="round"/>
<path d="M21.0948 5.75598C20.7127 6.27924 19.0774 6.57824 17.9923 6.57824V8.32741C17.9923 8.32741 19.1538 8.50681 20.239 8.07326C21.1407 7.71445 21.3699 7.32575 21.3699 7.32575L21.0948 5.75598Z" fill="#898E96" stroke="#898E96" stroke-miterlimit="10" stroke-linecap="round" stroke-linejoin="round"/>
<path d="M21.3852 7.16119C24.2584 7.16119 26.2911 9.29907 26.2911 11.9452C26.2911 13.5001 25.8632 15.324 24.6253 16.206L18.3896 16.2808" stroke="#898E96" stroke-width="2" stroke-miterlimit="10" stroke-linecap="round" stroke-linejoin="round"/>
<path d="M25.5267 23.4567C26.0005 23.4567 26.3979 21.857 26.3979 19.8686C26.3979 17.8802 26.0158 16.2806 25.5267 16.2806" stroke="#898E96" stroke-width="2" stroke-miterlimit="10" stroke-linecap="round" stroke-linejoin="round"/>
<path d="M18.0077 23.4567H25.5424C26.0162 23.4567 26.4135 24.8919 26.4135 26.656C26.4135 28.4201 26.0314 29.8553 25.5424 29.8553H18.0077" stroke="#898E96" stroke-width="2" stroke-miterlimit="10" stroke-linecap="round" stroke-linejoin="round"/>
<path d="M25.5271 30.1395V31.4999H18.0077" stroke="#898E96" stroke-width="2" stroke-miterlimit="10" stroke-linecap="round" stroke-linejoin="round"/>
<path d="M18.0077 9.07477V31.5" stroke="#898E96" stroke-width="2" stroke-miterlimit="10" stroke-linecap="round" stroke-linejoin="round"/>
<path d="M11.9249 7.89368C9.58652 8.64119 6.25476 11.3472 6.60627 13.8588C6.60627 13.8588 5.24606 15.9817 5.38361 18.7325C5.38361 18.7325 4.03867 20.9302 4.14566 23.8306C4.14566 23.8306 2.61732 26.9551 3.09111 30.1395L6.01022 30.8123C6.01022 30.8123 8.39442 28.1661 8.21102 25.1312C8.21102 25.1312 9.60181 23.0531 9.70879 22.0066" stroke="#898E96" stroke-width="2" stroke-miterlimit="10" stroke-linecap="round" stroke-linejoin="round"/>
<path d="M4.57361 24.1147L7.63028 25.0417" stroke="#898E96" stroke-width="2" stroke-miterlimit="10" stroke-linecap="round" stroke-linejoin="round"/>
<path d="M6.10181 18.8373L9.02092 19.7791" stroke="#898E96" stroke-width="2" stroke-miterlimit="10" stroke-linecap="round" stroke-linejoin="round"/>
<path d="M7.15649 13.9786L10.045 14.5766" stroke="#898E96" stroke-width="2" stroke-miterlimit="10" stroke-linecap="round" stroke-linejoin="round"/>
<path d="M24.0751 7.89368C26.4134 8.64119 29.7452 11.3472 29.3937 13.8588C29.3937 13.8588 30.7539 15.9817 30.6163 18.7325C30.6163 18.7325 31.9613 20.9302 31.8543 23.8306C31.8543 23.8306 33.3826 26.9551 32.9088 30.1395L29.9897 30.8123C29.9897 30.8123 27.6055 28.1661 27.7889 25.1312C27.7889 25.1312 26.3981 23.0531 26.2912 22.0066" stroke="#898E96" stroke-width="2" stroke-miterlimit="10" stroke-linecap="round" stroke-linejoin="round"/>
<path d="M31.4263 24.1147L28.3696 25.0417" stroke="#898E96" stroke-width="2" stroke-miterlimit="10" stroke-linecap="round" stroke-linejoin="round"/>
<path d="M29.8979 18.8373L26.9788 19.7791" stroke="#898E96" stroke-width="2" stroke-miterlimit="10" stroke-linecap="round" stroke-linejoin="round"/>
<path d="M28.8434 13.9786L25.9548 14.5766" stroke="#898E96" stroke-width="2" stroke-miterlimit="10" stroke-linecap="round" stroke-linejoin="round"/>
<path d="M14.2327 6.08472C14.2327 5.20266 15.9138 4.5 17.9924 4.5C20.0709 4.5 21.7521 5.21761 21.7521 6.08472" stroke="#898E96" stroke-width="2" stroke-miterlimit="10" stroke-linecap="round" stroke-linejoin="round"/>
</svg>
