<svg width="36" height="36" viewBox="0 0 36 36" fill="none" xmlns="http://www.w3.org/2000/svg">
<path d="M32.0939 21.3859C31.4067 21.9241 30.904 21.8344 29.2281 21.8045C27.5523 21.7746 3.92261 21.8045 3.92261 21.8045" stroke="#898E96" stroke-width="2" stroke-miterlimit="10" stroke-linecap="round" stroke-linejoin="round"/>
<path d="M25.9437 17.2454L22.2736 21.386" stroke="#898E96" stroke-width="2" stroke-miterlimit="10" stroke-linecap="round" stroke-linejoin="round"/>
<path d="M22.2736 15.1824L20.5642 17.1107" stroke="#898E96" stroke-width="2" stroke-miterlimit="10" stroke-linecap="round" stroke-linejoin="round"/>
<path d="M19.8434 13.5383L18.3854 15.1677" stroke="#898E96" stroke-width="2" stroke-miterlimit="10" stroke-linecap="round" stroke-linejoin="round"/>
<path d="M28.8094 17.7534L25.9436 17.2601L16.9275 11.52H16.3577C15.8382 13.7323 13.626 15.4065 10.9949 15.4065C8.3806 15.4065 6.21873 14.5246 5.6657 12.3422C5.6657 12.3422 5.21322 12.2674 4.8948 13.1643C4.57639 14.0612 4.62666 17.6487 4.62666 17.6487C3.97308 17.6487 3.4368 18.1271 3.4368 18.7101L3.42004 23.045C3.42004 23.8373 4.14066 24.48 5.02887 24.48H28.8094C30.8874 24.48 32.58 22.9703 32.58 21.1167C32.58 19.2482 30.8874 17.7534 28.8094 17.7534Z" stroke="#898E96" stroke-width="2" stroke-miterlimit="10" stroke-linecap="round" stroke-linejoin="round"/>
<path d="M11.7326 21.61L4.62695 17.6487" stroke="#898E96" stroke-width="2" stroke-miterlimit="10" stroke-linecap="round" stroke-linejoin="round"/>
</svg>
