<svg width="156" height="240" viewBox="0 0 156 240" fill="none" xmlns="http://www.w3.org/2000/svg">
<path d="M78 102H47L10 183L81 182.39H75L146 183L109 102H78Z" stroke="#333333" stroke-width="2" stroke-miterlimit="10"/>
<path d="M72 102H46.88L25 239H58L75 183L92 239H125L108.12 102H78H72Z" stroke="#333333" stroke-width="2" stroke-miterlimit="10" stroke-linecap="round" stroke-linejoin="round"/>
<path d="M111 1L78 49L109 59.32L111 1Z" stroke="#333333" stroke-width="2" stroke-miterlimit="10" stroke-linecap="round" stroke-linejoin="round"/>
<path d="M110.992 1.56243L110.879 1.5H110.75H78H45.25H45.121L45.0081 1.56243C44.6897 1.73842 44.321 2.04165 43.9184 2.42895C43.5094 2.82234 43.0414 3.32617 42.5235 3.92649C41.4872 5.12751 40.2341 6.73438 38.829 8.66032C36.0181 12.5134 32.5835 17.6649 29.0351 23.4485C21.9422 35.0093 14.3704 49.1351 10.4178 60.4957C4.06902 78.7396 2.16382 95.2546 1.66193 100.956L1.61405 101.5H2.16H29.29H29.7128L29.7831 101.083C30.3309 97.8309 31.7396 90.5639 34.3961 83.4231C35.7243 79.8529 37.359 76.3293 39.3441 73.3596C41.3313 70.3868 43.6496 67.9992 46.3336 66.6572C46.5437 66.5522 46.7671 66.5 47 66.5C47.2783 66.5 47.5461 66.5747 47.785 66.724L47.7896 66.7268C48.2289 66.9949 48.5 67.4821 48.5 68V100.85V101.357L49.0069 101.35L77.97 100.95H77.9701H77.9702H77.9702H77.9704H77.9704H77.9705H77.9706H77.9707H77.9708H77.9708H77.9709H77.971H77.9711H77.9712H77.9713H77.9714H77.9715H77.9715H77.9716H77.9717H77.9718H77.9719H77.972H77.9721H77.9721H77.9722H77.9723H77.9724H77.9725H77.9726H77.9726H77.9728H77.9728H77.9729H77.973H77.9731H77.9732H77.9733H77.9733H77.9735H77.9735H77.9736H77.9737H77.9738H77.9739H77.9739H77.974H77.9741H77.9742H77.9743H77.9744H77.9745H77.9746H77.9746H77.9747H77.9748H77.9749H77.975H77.975H77.9752H77.9752H77.9753H77.9754H77.9755H77.9756H77.9757H77.9757H77.9759H77.9759H77.976H77.9761H77.9762H77.9763H77.9763H77.9764H77.9765H77.9766H77.9767H77.9768H77.9769H77.977H77.977H77.9771H77.9772H77.9773H77.9774H77.9775H77.9776H77.9777H77.9777H77.9779H77.9779H77.978H77.9781H77.9781H77.9783H77.9783H77.9784H77.9785H77.9786H77.9787H77.9788H77.9789H77.979H77.979H77.9791H77.9792H77.9793H77.9794H77.9794H77.9796H77.9796H77.9797H77.9798H77.9799H77.98H77.9801H77.9801H77.9803H77.9803H77.9804H77.9805H77.9806H77.9807H77.9808H77.9808H77.981H77.981H77.9811H77.9812H77.9813H77.9814H77.9814H77.9815H77.9816H77.9817H77.9818H77.9819H77.982H77.9821H77.9821H77.9822H77.9823H77.9824H77.9825H77.9826H77.9827H77.9827H77.9828H77.9829H77.983H77.9831H77.9832H77.9832H77.9834H77.9834H77.9835H77.9836H77.9837H77.9838H77.9839H77.9839H77.9841H77.9841H77.9842H77.9843H77.9844H77.9845H77.9845H77.9846H77.9847H77.9848H77.9849H77.985H77.9851H77.9852H77.9852H77.9854H77.9854H77.9855H77.9856H77.9857H77.9858H77.9858H77.9859H77.986H77.9861H77.9862H77.9863H77.9864H77.9865H77.9865H77.9866H77.9867H77.9868H77.9869H77.987H77.9871H77.9872H77.9872H77.9873H77.9874H77.9875H77.9876H77.9876H77.9878H77.9878H77.9879H77.988H77.9881H77.9882H77.9883H77.9883H77.9885H77.9885H77.9886H77.9887H77.9888H77.9889H77.989H77.989H77.9891H77.9892H77.9893H77.9894H77.9895H77.9896H77.9896H77.9897H77.9898H77.9899H77.99H77.9901H77.9902H77.9903H77.9903H77.9904H77.9905H77.9906H77.9907H77.9907H77.9909H77.9909H77.991H77.9911H77.9912H77.9913H77.9914H77.9914H77.9916H77.9916H77.9917H77.9918H77.9919H77.992H77.9921H77.9921H77.9922H77.9923H77.9924H77.9925H77.9926H77.9927H77.9927H77.9929H77.9929H77.993H77.9931H77.9932H77.9933H77.9934H77.9934H77.9936H77.9936H77.9937H77.9938H77.9939H77.994H77.994H77.9941H77.9942H77.9943H77.9944H77.9945H77.9946H77.9947H77.9947H77.9948H77.9949H77.995H77.9951H77.9952H77.9953H77.9953H77.9954H77.9955H77.9956H77.9957H77.9958H77.9958H77.996H77.996H77.9961H77.9962H77.9963H77.9964H77.9965H77.9965H77.9966H77.9967H77.9968H77.9969H77.997H77.9971H77.9971H77.9972H77.9973H77.9974H77.9975H77.9976H77.9977H77.9978H77.9978H77.9979H77.998H77.9981H77.9982H77.9982H77.9984H77.9984H77.9985H77.9986H77.9987H77.9988H77.9989H77.9989H77.9991H77.9991H77.9992H77.9993H77.9994H77.9995H77.9995H77.9996H77.9997H77.9998H77.9999H78H78.0001H78.0002H78.0002H78.0004H78.0004H78.0005H78.0006H78.0007H78.0008H78.0008H78.0009H78.001H78.0011H78.0012H78.0013H78.0014H78.0015H78.0015H78.0016H78.0017H78.0018H78.0019H78.002H78.0021H78.0021H78.0022H78.0023H78.0024H78.0025H78.0026H78.0026H78.0028H78.0028H78.0029H78.003H78.0031H78.0032H78.0033H78.0033H78.0035H78.0035H78.0036H78.0037H78.0038H78.0039H78.0039H78.004H78.0041H78.0042H78.0043H78.0044H78.0045H78.0046H78.0046H78.0047H78.0048H78.0049H78.005H78.005H78.0052H78.0052H78.0053H78.0054H78.0055H78.0056H78.0057H78.0057H78.0059H78.0059H78.006H78.0061H78.0062H78.0063H78.0063H78.0064H78.0065H78.0066H78.0067H78.0068H78.0069H78.007H78.007H78.0071H78.0072H78.0073H78.0074H78.0075H78.0076H78.0077H78.0077H78.0079H78.0079H78.008H78.0081H78.0081H78.0083H78.0083H78.0084H78.0085H78.0086H78.0087H78.0088H78.0089H78.009H78.009H78.0091H78.0092H78.0093H78.0094H78.0094H78.0096H78.0096H78.0097H78.0098H78.0099H78.01H78.0101H78.0101H78.0103H78.0103H78.0104H78.0105H78.0106H78.0107H78.0108H78.0108H78.011H78.011H78.0111H78.0112H78.0113H78.0114H78.0114H78.0115H78.0116H78.0117H78.0118H78.0119H78.012H78.0121H78.0121H78.0122H78.0123H78.0124H78.0125H78.0126H78.0127H78.0127H78.0128H78.0129H78.013H78.0131H78.0132H78.0132H78.0134H78.0134H78.0135H78.0136H78.0137H78.0138H78.0139H78.0139H78.0141H78.0141H78.0142H78.0143H78.0144H78.0145H78.0145H78.0146H78.0147H78.0148H78.0149H78.015H78.0151H78.0152H78.0152H78.0154H78.0154H78.0155H78.0156H78.0157H78.0158H78.0158H78.0159H78.016H78.0161H78.0162H78.0163H78.0163H78.0165H78.0165H78.0166H78.0167H78.0168H78.0169H78.017H78.0171H78.0172H78.0172H78.0173H78.0174H78.0175H78.0176H78.0176H78.0178H78.0178H78.0179H78.018H78.0181H78.0182H78.0183H78.0183H78.0185H78.0185H78.0186H78.0187H78.0188H78.0189H78.019H78.019H78.0191H78.0192H78.0193H78.0194H78.0195H78.0196H78.0196H78.0197H78.0198H78.0199H78.02H78.0201H78.0202H78.0203H78.0203H78.0204H78.0205H78.0206H78.0207H78.0207H78.0209H78.0209H78.021H78.0211H78.0212H78.0213H78.0214H78.0214H78.0216H78.0216H78.0217H78.0218H78.0219H78.022H78.0221H78.0221H78.0222H78.0223H78.0224H78.0225H78.0226H78.0227H78.0227H78.0229H78.0229H78.023H78.0231H78.0232H78.0233H78.0234H78.0234H78.0236H78.0236H78.0237H78.0238H78.0238H78.024H78.024H78.0241H78.0242H78.0243H78.0244H78.0245H78.0246H78.0247H78.0247H78.0248H78.0249H78.025H78.0251H78.0252H78.0253H78.0253H78.0254H78.0255H78.0256H78.0257H78.0258H78.0258H78.026H78.026H78.0261H78.0262H78.0263H78.0264H78.0265H78.0265H78.0266H78.0267H78.0268H78.0269H78.027H78.0271H78.0271H78.0272H78.0273H78.0274H78.0275H78.0276H78.0277H78.0278H78.0278H78.0279H78.028H78.0281H78.0282H78.0282H78.0284H78.0284H78.0285H78.0286H78.0287H78.0288H78.0289H78.0289H78.0291H78.0291H78.0292H78.0293H78.0294H78.0295H78.0295H78.0296H78.0297H78.0298H78.0299H78.03L106.993 101.35L107.5 101.357V100.85V68C107.5 67.4821 107.771 66.9949 108.21 66.7268L108.215 66.724C108.454 66.5747 108.722 66.5 109 66.5C109.233 66.5 109.456 66.5522 109.666 66.6572C112.35 67.9992 114.669 70.3868 116.656 73.3596C118.641 76.3293 120.276 79.8529 121.604 83.4231C124.26 90.5639 125.669 97.8309 126.217 101.083L126.287 101.5H126.71H153.84H154.386L154.338 100.956C153.836 95.2546 151.931 78.7396 145.582 60.4957C141.63 49.1352 134.058 35.0093 126.965 23.4485C123.417 17.6649 119.982 12.5134 117.171 8.66032C115.766 6.73438 114.513 5.12751 113.477 3.92649C112.959 3.32617 112.491 2.82234 112.082 2.42895C111.679 2.04165 111.31 1.73842 110.992 1.56243ZM47.5 68V67.191L46.7764 67.5528C43.6495 69.1162 41.0881 72.1511 39.0048 75.7495C36.9167 79.3561 35.2787 83.5819 34.0228 87.6009C32.766 91.6225 31.887 95.453 31.3222 98.2769C31.0397 99.6894 30.8356 100.851 30.702 101.661C30.6447 102.008 30.6003 102.29 30.5683 102.5H0.531536C0.53871 102.393 0.54724 102.27 0.557281 102.132C0.599964 101.544 0.669926 100.677 0.778871 99.5643C0.996768 97.3387 1.37056 94.1299 1.99382 90.2034C3.24052 82.3492 5.48441 71.6293 9.47225 60.1643C13.4546 48.715 21.4327 33.751 28.9252 21.638C32.6698 15.5843 36.2852 10.2555 39.2092 6.44501C40.6724 4.53815 41.9542 3.02241 42.9867 1.98799C43.5038 1.46989 43.947 1.08422 44.31 0.831539C44.6941 0.564223 44.9133 0.5 45 0.5H45.0237H45.048H45.0729H45.0983H45.1243H45.1508H45.1779H45.2056H45.2338H45.2626H45.2919H45.3218H45.3522H45.3831H45.4146H45.4466H45.4791H45.5122H45.5458H45.58H45.6146H45.6498H45.6855H45.7217H45.7585H45.7957H45.8335H45.8717H45.9105H45.9498H45.9895H46.0298H46.0705H46.1118H46.1535H46.1958H46.2385H46.2817H46.3254H46.3695H46.4141H46.4593H46.5048H46.5509H46.5974H46.6444H46.6918H46.7397H46.788H46.8368H46.8861H46.9358H46.986H47.0365H47.0876H47.1391H47.191H47.2433H47.2961H47.3493H47.403H47.457H47.5115H47.5664H47.6217H47.6775H47.7336H47.7902H47.8472H47.9045H47.9623H48.0205H48.0791H48.138H48.1974H48.2572H48.3173H48.3778H48.4388H48.5001H48.5617H48.6238H48.6862H48.749H48.8122H48.8757H48.9396H49.0039H49.0685H49.1335H49.1988H49.2645H49.3306H49.397H49.4637H49.5308H49.5982H49.6659H49.734H49.8024H49.8712H49.9403H50.0097H50.0794H50.1495H50.2198H50.2905H50.3615H50.4328H50.5045H50.5764H50.6486H50.7212H50.794H50.8671H50.9405H51.0143H51.0883H51.1626H51.2371H51.312H51.3871H51.4626H51.5383H51.6142H51.6905H51.767H51.8438H51.9208H51.9981H52.0756H52.1534H52.2315H52.3098H52.3884H52.4672H52.5463H52.6256H52.7051H52.7849H52.8649H52.9451H53.0256H53.1063H53.1872H53.2683H53.3497H53.4313H53.5131H53.5951H53.6773H53.7597H53.8423H53.9252H54.0082H54.0914H54.1748H54.2585H54.3423H54.4263H54.5105H54.5948H54.6794H54.7641H54.849H54.9341H55.0193H55.1047H55.1903H55.2761H55.362H55.4481H55.5343H55.6207H55.7072H55.7939H55.8807H55.9677H56.0548H56.1421H56.2295H56.317H56.4047H56.4925H56.5804H56.6684H56.7566H56.8449H56.9333H57.0218H57.1105H57.1992H57.2881H57.377H57.4661H57.5553H57.6446H57.7339H57.8234H57.9129H58.0026H58.0923H58.1821H58.272H58.362H58.4521H58.5422H58.6324H58.7227H58.813H58.9034H58.9939H59.0844H59.175H59.2656H59.3563H59.4471H59.5379H59.6287H59.7196H59.8105H59.9015H59.9925H60.0835H60.1746H60.2657H60.3568H60.4479H60.5391H60.6303H60.7215H60.8127H60.9039H60.9952H61.0864H61.1777H61.2689H61.3602H61.4514H61.5427H61.6339H61.7251H61.8164H61.9076H61.9987H62.0899H62.1811H62.2722H62.3633H62.4543H62.5454H62.6364H62.7273H62.8183H62.9092H63H63.0908H63.1815H63.2722H63.3629H63.4535H63.544H63.6345H63.7249H63.8152H63.9055H63.9957H64.0859H64.1759H64.2659H64.3558H64.4456H64.5354H64.625H64.7146H64.804H64.8934H64.9827H65.0719H65.1609H65.2499H65.3388H65.4275H65.5162H65.6047H65.6931H65.7814H65.8696H65.9577H66.0456H66.1334H66.2211H66.3086H66.396H66.4833H66.5704H66.6574H66.7443H66.831H66.9175H67.0039H67.0901H67.1762H67.2621H67.3479H67.4335H67.5189H67.6042H67.6893H67.7742H67.8589H67.9435H68.0279H68.1121H68.1961H68.2799H68.3635H68.447H68.5302H68.6133H68.6961H68.7788H68.8612H68.9434H69.0255H69.1073H69.1889H69.2702H69.3514H69.4323H69.513H69.5935H69.6738H69.7538H69.8336H69.9131H69.9925H70.0715H70.1504H70.2289H70.3073H70.3854H70.4632H70.5408H70.6181H70.6951H70.7719H70.8484H70.9247H71.0007H71.0764H71.1519H71.227H71.3019H71.3765H71.4508H71.5248H71.5986H71.672H71.7452H71.818H71.8906H71.9629H72.0348H72.1064H72.1778H72.2488H72.3195H72.3899H72.46H72.5297H72.5992H72.6683H72.7371H72.8055H72.8736H72.9414H73.0088H73.0759H73.1427H73.2091H73.2752H73.3409H73.4062H73.4713H73.5359H73.6002H73.6641H73.7277H73.7909H73.8537H73.9162H73.9783H74.04H74.1013H74.1622H74.2228H74.283H74.3428H74.4022H74.4612H74.5198H74.578H74.6358H74.6932H74.7502H74.8068H74.863H74.9187H74.9741H75.029H75.0835H75.1376H75.1913H75.2446H75.2974H75.3497H75.4017H75.4532H75.5043H75.5549H75.6051H75.6548H75.7041H75.7529H75.8013H75.8493H75.8967H75.9437H75.9903H76.0364H76.082H76.1271H76.1718H76.216H76.2597H76.3029H76.3457H76.3879H76.4297H76.471H76.5118H76.5521H76.5919H76.6312H76.67H76.7083H76.7461H76.7834H76.8201H76.8564H76.8921H76.9274H76.9621H76.9962H77.0299H77.063H77.0956H77.1276H77.1592H77.1902H77.2206H77.2505H77.2798H77.3087H77.3369H77.3646H77.3918H77.4183H77.4444H77.4698H77.4947H77.5191H77.5428H77.566H77.5887H77.6107H77.6322H77.653H77.6733H77.6931H77.7122H77.7307H77.7486H77.766H77.7827H77.7989H77.8144H77.8293H77.8437H77.8574H77.8705H77.8829H77.8948H77.9061H77.9167H77.9267H77.9361H77.9448H77.9529H77.9604H77.9672H77.9734H77.979H77.9839H77.9881H77.9918H77.9947H77.997H77.9987H77.9997C77.9999 0.5 78 0.5 78 0C78 0.5 78.0001 0.5 78.0003 0.5H78.0013H78.003H78.0053H78.0082H78.0119H78.0161H78.021H78.0266H78.0328H78.0396H78.0471H78.0552H78.0639H78.0733H78.0833H78.0939H78.1052H78.1171H78.1295H78.1426H78.1563H78.1707H78.1856H78.2011H78.2173H78.234H78.2514H78.2693H78.2878H78.3069H78.3267H78.347H78.3678H78.3893H78.4113H78.434H78.4572H78.4809H78.5053H78.5302H78.5556H78.5817H78.6082H78.6354H78.6631H78.6913H78.7202H78.7495H78.7794H78.8098H78.8408H78.8724H78.9044H78.937H78.9701H79.0038H79.0379H79.0726H79.1079H79.1436H79.1799H79.2166H79.2539H79.2917H79.33H79.3688H79.4081H79.4479H79.4882H79.529H79.5703H79.6121H79.6543H79.6971H79.7403H79.784H79.8282H79.8729H79.918H79.9636H80.0097H80.0563H80.1033H80.1507H80.1987H80.2471H80.2959H80.3452H80.3949H80.4451H80.4957H80.5468H80.5983H80.6503H80.7026H80.7554H80.8087H80.8624H80.9165H80.971H81.0259H81.0813H81.137H81.1932H81.2498H81.3068H81.3642H81.422H81.4802H81.5388H81.5978H81.6572H81.717H81.7772H81.8378H81.8987H81.96H82.0217H82.0838H82.1463H82.2091H82.2723H82.3359H82.3998H82.4641H82.5287H82.5938H82.6591H82.7248H82.7909H82.8573H82.9241H82.9912H83.0586H83.1264H83.1945H83.2629H83.3317H83.4008H83.4703H83.54H83.6101H83.6805H83.7512H83.8222H83.8936H83.9652H84.0371H84.1094H84.182H84.2548H84.328H84.4014H84.4752H84.5492H84.6235H84.6981H84.773H84.8481H84.9236H84.9993H85.0753H85.1516H85.2281H85.3049H85.3819H85.4592H85.5368H85.6146H85.6927H85.7711H85.8496H85.9285H86.0075H86.0869H86.1664H86.2462H86.3262H86.4065H86.487H86.5677H86.6486H86.7298H86.8111H86.8927H86.9745H87.0566H87.1388H87.2212H87.3039H87.3867H87.4698H87.553H87.6365H87.7201H87.8039H87.8879H87.9721H88.0565H88.1411H88.2258H88.3107H88.3958H88.4811H88.5665H88.6521H88.7379H88.8238H88.9099H88.9961H89.0825H89.169H89.2557H89.3426H89.4296H89.5167H89.604H89.6914H89.7789H89.8666H89.9544H90.0423H90.1304H90.2186H90.3069H90.3953H90.4838H90.5725H90.6612H90.7501H90.8391H90.9281H91.0173H91.1066H91.196H91.2854H91.375H91.4646H91.5544H91.6442H91.7341H91.8241H91.9141H92.0043H92.0945H92.1848H92.2751H92.3655H92.456H92.5465H92.6371H92.7278H92.8185H92.9092H93H93.0908H93.1817H93.2727H93.3636H93.4546H93.5457H93.6367H93.7278H93.8189H93.9101H94.0013H94.0924H94.1836H94.2749H94.3661H94.4573H94.5486H94.6398H94.7311H94.8223H94.9136H95.0048H95.0961H95.1873H95.2785H95.3697H95.4609H95.5521H95.6432H95.7343H95.8254H95.9165H96.0075H96.0985H96.1895H96.2804H96.3713H96.4621H96.5529H96.6437H96.7344H96.825H96.9156H97.0061H97.0966H97.187H97.2773H97.3676H97.4578H97.5479H97.638H97.728H97.8179H97.9077H97.9974H98.0871H98.1766H98.2661H98.3554H98.4447H98.5339H98.623H98.7119H98.8008H98.8895H98.9782H99.0667H99.1551H99.2434H99.3316H99.4196H99.5075H99.5953H99.683H99.7705H99.8579H99.9452H100.032H100.119H100.206H100.293H100.379H100.466H100.552H100.638H100.724H100.81H100.895H100.981H101.066H101.151H101.236H101.321H101.405H101.49H101.574H101.658H101.742H101.825H101.909H101.992H102.075H102.158H102.24H102.323H102.405H102.487H102.569H102.65H102.732H102.813H102.894H102.974H103.055H103.135H103.215H103.295H103.374H103.454H103.533H103.612H103.69H103.768H103.847H103.924H104.002H104.079H104.156H104.233H104.31H104.386H104.462H104.537H104.613H104.688H104.763H104.837H104.912H104.986H105.059H105.133H105.206H105.279H105.351H105.424H105.496H105.567H105.638H105.709H105.78H105.851H105.921H105.99H106.06H106.129H106.198H106.266H106.334H106.402H106.469H106.536H106.603H106.669H106.735H106.801H106.866H106.931H106.996H107.06H107.124H107.188H107.251H107.314H107.376H107.438H107.5H107.561H107.622H107.683H107.743H107.803H107.862H107.921H107.98H108.038H108.095H108.153H108.21H108.266H108.323H108.378H108.434H108.489H108.543H108.597H108.651H108.704H108.757H108.809H108.861H108.912H108.963H109.014H109.064H109.114H109.163H109.212H109.26H109.308H109.356H109.403H109.449H109.495H109.541H109.586H109.63H109.675H109.718H109.762H109.804H109.846H109.888H109.929H109.97H110.01H110.05H110.09H110.128H110.167H110.204H110.242H110.278H110.314H110.35H110.385H110.42H110.454H110.488H110.521H110.553H110.585H110.617H110.648H110.678H110.708H110.737H110.766H110.794H110.822H110.849H110.876H110.902H110.927H110.952H110.976H111C111.087 0.5 111.306 0.564223 111.69 0.831539C112.053 1.08422 112.496 1.46989 113.013 1.98799C114.046 3.02241 115.328 4.53815 116.791 6.44501C119.715 10.2555 123.33 15.5843 127.075 21.638C134.567 33.751 142.545 48.715 146.528 60.1643C150.516 71.6293 152.759 82.3492 154.006 90.2034C154.629 94.1299 155.003 97.3387 155.221 99.5643C155.33 100.677 155.4 101.544 155.443 102.132C155.453 102.27 155.461 102.393 155.468 102.5H125.432C125.4 102.29 125.355 102.008 125.298 101.661C125.164 100.851 124.96 99.6894 124.678 98.2769C124.113 95.453 123.234 91.6225 121.977 87.6009C120.721 83.5819 119.083 79.3561 116.995 75.7495C114.912 72.1511 112.351 69.1162 109.224 67.5528L108.5 67.191V68V102.373L78.0068 101.96V101.96L77.9932 101.96L47.5 102.373V68Z" fill="black" stroke="#333333"/>
<path d="M45 1L78 49L47 59.32L45 1Z" stroke="#333333" stroke-width="2" stroke-miterlimit="10" stroke-linecap="round" stroke-linejoin="round"/>
<path d="M78 67C79.6569 67 81 65.6569 81 64C81 62.3431 79.6569 61 78 61C76.3431 61 75 62.3431 75 64C75 65.6569 76.3431 67 78 67Z" stroke="#333333" stroke-width="2" stroke-miterlimit="10"/>
<path d="M78 81C79.6569 81 81 79.6569 81 78C81 76.3431 79.6569 75 78 75C76.3431 75 75 76.3431 75 78C75 79.6569 76.3431 81 78 81Z" stroke="#333333" stroke-width="2" stroke-miterlimit="10"/>
</svg>
