<svg width="100" height="20" viewBox="0 0 100 20" fill="none" xmlns="http://www.w3.org/2000/svg">
<path d="M90.0002 14.3919L95.1502 17.5002L93.7835 11.6419L98.3335 7.7002L92.3419 7.19187L90.0002 1.66687L87.6585 7.19187L81.6669 7.7002L86.2169 11.6419L84.8502 17.5002L90.0002 14.3919Z" fill="white"/>
<path d="M70.0002 14.3919L75.1502 17.5002L73.7835 11.6419L78.3335 7.7002L72.3419 7.19187L70.0002 1.66687L67.6585 7.19187L61.6669 7.7002L66.2169 11.6419L64.8502 17.5002L70.0002 14.3919Z" fill="white"/>
<path d="M50.0002 14.3919L55.1502 17.5002L53.7835 11.6419L58.3335 7.7002L52.3419 7.19187L50.0002 1.66687L47.6585 7.19187L41.6669 7.7002L46.2169 11.6419L44.8502 17.5002L50.0002 14.3919Z" fill="#BBD0FC"/>
<path d="M30.0002 14.3919L35.1502 17.5002L33.7835 11.6419L38.3335 7.7002L32.3419 7.19187L30.0002 1.66687L27.6585 7.19187L21.6669 7.7002L26.2169 11.6419L24.8502 17.5002L30.0002 14.3919Z" fill="#BBD0FC"/>
<path d="M10.0002 14.3919L15.1502 17.5002L13.7835 11.6419L18.3335 7.7002L12.3419 7.19187L10.0002 1.66687L7.65854 7.19187L1.66687 7.7002L6.21687 11.6419L4.8502 17.5002L10.0002 14.3919Z" fill="#BBD0FC"/>
</svg>
