<svg width="18" height="18" viewBox="0 0 18 18" fill="none" xmlns="http://www.w3.org/2000/svg">
<path d="M5.40005 2.69995V2.19995C5.12391 2.19995 4.90005 2.42381 4.90005 2.69995H5.40005ZM12.6 2.69995H13.1C13.1 2.42381 12.8762 2.19995 12.6 2.19995V2.69995ZM5.40005 4.80006V5.30006C5.67619 5.30006 5.90005 5.0762 5.90005 4.80006H5.40005ZM1.80005 4.80006V4.30006C1.52391 4.30006 1.30005 4.52392 1.30005 4.80006H1.80005ZM1.80005 14.4H1.30005C1.30005 14.6761 1.52391 14.9 1.80005 14.9V14.4ZM16.2 14.4V14.9C16.4762 14.9 16.7 14.6761 16.7 14.4H16.2ZM16.2 4.80006H16.7C16.7 4.52392 16.4762 4.30006 16.2 4.30006V4.80006ZM12.6 4.80006H12.1C12.1 5.0762 12.3239 5.30006 12.6 5.30006V4.80006ZM5.40005 3.19995H12.6V2.19995H5.40005V3.19995ZM5.90005 4.80006V2.69995H4.90005V4.80006H5.90005ZM1.80005 5.30006H5.40005V4.30006H1.80005V5.30006ZM2.30005 14.4V4.80006H1.30005V14.4H2.30005ZM16.2 13.9H1.80005V14.9H16.2V13.9ZM15.7 4.80006V14.4H16.7V4.80006H15.7ZM12.6 5.30006H16.2V4.30006H12.6V5.30006ZM12.1 2.69995V4.80006H13.1V2.69995H12.1Z" fill="#2F73EA"/>
<circle cx="9.00005" cy="8.99993" r="2.7" stroke="#2F73EA"/>
</svg>
