<svg width="48" height="48" viewBox="0 0 48 48" fill="none" xmlns="http://www.w3.org/2000/svg">
<path d="M10.8 10.8H14.4V16.8H33.6V10.8H37.2V21.6H40.8V10.8C40.8 8.80801 39.192 7.20001 37.2 7.20001H28.632C28.104 5.13601 26.232 3.60001 24 3.60001C21.768 3.60001 19.896 5.13601 19.368 7.20001H10.8C8.80801 7.20001 7.20001 8.80801 7.20001 10.8V37.2C7.20001 39.192 8.80801 40.8 10.8 40.8H21.6V37.2H10.8V10.8ZM24 7.20001C24.984 7.20001 25.8 7.99201 25.8 9.00001C25.8 9.98401 24.984 10.8 24 10.8C23.016 10.8 22.2 9.98401 22.2 9.00001C22.2 7.99201 23.016 7.20001 24 7.20001Z" fill="#A3A3A3"/>
<path d="M36 26.4L33.456 28.944L36.312 31.8H26.4V35.4H36.312L33.456 38.256L36 40.8L43.2 33.6L36 26.4Z" fill="#A3A3A3"/>
</svg>
