<svg width="30" height="30" viewBox="0 0 30 30" fill="none" xmlns="http://www.w3.org/2000/svg">
<rect x="1" y="1" width="28" height="28" rx="4" fill="white" stroke="#BBD0FC" stroke-width="2"/>
<path d="M11.4 8.69995V8.19995C11.1239 8.19995 10.9 8.42381 10.9 8.69995H11.4ZM18.6 8.69995H19.1C19.1 8.42381 18.8762 8.19995 18.6 8.19995V8.69995ZM11.4 10.8001V11.3001C11.6762 11.3001 11.9 11.0762 11.9 10.8001H11.4ZM7.80005 10.8001V10.3001C7.52391 10.3001 7.30005 10.5239 7.30005 10.8001H7.80005ZM7.80005 20.4H7.30005C7.30005 20.6761 7.52391 20.9 7.80005 20.9V20.4ZM22.2 20.4V20.9C22.4762 20.9 22.7 20.6761 22.7 20.4H22.2ZM22.2 10.8001H22.7C22.7 10.5239 22.4762 10.3001 22.2 10.3001V10.8001ZM18.6 10.8001H18.1C18.1 11.0762 18.3239 11.3001 18.6 11.3001V10.8001ZM11.4 9.19995H18.6V8.19995H11.4V9.19995ZM11.9 10.8001V8.69995H10.9V10.8001H11.9ZM7.80005 11.3001H11.4V10.3001H7.80005V11.3001ZM8.30005 20.4V10.8001H7.30005V20.4H8.30005ZM22.2 19.9H7.80005V20.9H22.2V19.9ZM21.7 10.8001V20.4H22.7V10.8001H21.7ZM18.6 11.3001H22.2V10.3001H18.6V11.3001ZM18.1 8.69995V10.8001H19.1V8.69995H18.1Z" fill="#2F73EA"/>
<circle cx="15" cy="14.9999" r="2.7" stroke="#2F73EA"/>
</svg>
