<svg width="30" height="30" viewBox="0 0 30 30" fill="none" xmlns="http://www.w3.org/2000/svg">
<path d="M22.7443 19.0721V20.7093C22.7443 20.7615 22.7016 20.8042 22.6493 20.8042H5.91563C5.86334 20.8042 5.82056 20.7615 5.82056 20.7093V5.85578C5.82056 5.80357 5.86334 5.76086 5.91563 5.76086H22.6493C22.7016 5.76086 22.7443 5.80357 22.7443 5.85578V7.5879" stroke="#A3A3A3" stroke-width="2" stroke-miterlimit="10"/>
<path d="M24.0886 12.2305V15.1985" stroke="#A3A3A3" stroke-width="2" stroke-miterlimit="10"/>
<path d="M24.6356 11.2898H21.1214C21.0535 11.2898 20.998 11.2495 20.998 11.2002V7.61847C20.998 7.56923 21.0535 7.52893 21.1214 7.52893H24.6356C24.7034 7.52893 24.7589 7.56923 24.7589 7.61847V11.2002C24.7589 11.2495 24.7034 11.2898 24.6356 11.2898Z" stroke="#A3A3A3" stroke-width="2" stroke-miterlimit="10"/>
<path d="M11.1072 28H6.63C6.56843 28 6.51807 27.9395 6.51807 27.8656V25.3136C6.51807 25.2398 6.56843 25.1793 6.63 25.1793H11.1072C11.1688 25.1793 11.2191 25.2398 11.2191 25.3136V27.8656C11.2191 27.9395 11.1688 28 11.1072 28Z" stroke="#A3A3A3" stroke-width="2" stroke-miterlimit="10"/>
<path d="M23.2232 28H18.746C18.6844 28 18.634 27.9395 18.634 27.8656V25.3136C18.634 25.2398 18.6844 25.1793 18.746 25.1793H23.2232C23.2847 25.1793 23.3351 25.2398 23.3351 25.3136V27.8656C23.3351 27.9395 23.2847 28 23.2232 28Z" stroke="#A3A3A3" stroke-width="2" stroke-miterlimit="10"/>
<path d="M24.6356 19.0118H21.1214C21.0535 19.0118 20.998 18.9715 20.998 18.9223V15.3405C20.998 15.2913 21.0535 15.251 21.1214 15.251H24.6356C24.7034 15.251 24.7589 15.2913 24.7589 15.3405V18.9223C24.7589 18.9715 24.7034 19.0118 24.6356 19.0118Z" stroke="#A3A3A3" stroke-width="2" stroke-miterlimit="10"/>
<path d="M27.3445 24.5651H3.10101C3.04546 24.5651 3 24.519 3 24.4627V2.10234C3 2.04605 3.04546 2 3.10101 2H27.3445C27.4 2 27.4455 2.04605 27.4455 2.10234V24.4627C27.4455 24.519 27.4 24.5651 27.3445 24.5651Z" stroke="#A3A3A3" stroke-width="2" stroke-miterlimit="10"/>
<path d="M12.3768 17.2044C14.4539 17.2044 16.1377 15.5206 16.1377 13.4436C16.1377 11.3665 14.4539 9.68274 12.3768 9.68274C10.2998 9.68274 8.61597 11.3665 8.61597 13.4436C8.61597 15.5206 10.2998 17.2044 12.3768 17.2044Z" stroke="#A3A3A3" stroke-width="2" stroke-miterlimit="10"/>
<path d="M12.2817 14.7622C13.0605 14.7622 13.692 14.1307 13.692 13.3518C13.692 12.5729 13.0605 11.9415 12.2817 11.9415C11.5028 11.9415 10.8713 12.5729 10.8713 13.3518C10.8713 14.1307 11.5028 14.7622 12.2817 14.7622Z" stroke="#A3A3A3" stroke-width="2" stroke-miterlimit="10"/>
</svg>
