<svg width="30" height="30" viewBox="0 0 30 30" fill="none" xmlns="http://www.w3.org/2000/svg">
<rect x="1" y="1" width="28" height="28" rx="4" fill="white" stroke="#0082F0" stroke-width="2"/>
<path d="M24 9H6V22H24V9Z" fill="#BBD0FC" stroke="#BBD0FC" stroke-miterlimit="10" stroke-linejoin="round"/>
<path d="M23 10H7V21H23V10Z" fill="#D9E5FF" stroke="#D9E5FF" stroke-miterlimit="10" stroke-linejoin="round"/>
<mask id="mask0_1097_22270" style="mask-type:alpha" maskUnits="userSpaceOnUse" x="6" y="9" width="18" height="13">
<path d="M23 10H7V21H23V10Z" fill="#D9E5FF" stroke="#D9E5FF" stroke-miterlimit="10" stroke-linejoin="round"/>
</mask>
<g mask="url(#mask0_1097_22270)">
<path d="M23 22L17.1687 16.2456L15.2674 18.0421L12.5512 14L7 22" fill="#0082F0"/>
<path d="M23 22L17.1687 16.2456L15.2674 18.0421L12.5512 14L7 22" stroke="#0082F0" stroke-miterlimit="10" stroke-linejoin="round"/>
</g>
<path d="M20.25 14.5C20.9404 14.5 21.5 13.9404 21.5 13.25C21.5 12.5596 20.9404 12 20.25 12C19.5596 12 19 12.5596 19 13.25C19 13.9404 19.5596 14.5 20.25 14.5Z" fill="#0082F0" stroke="#0082F0" stroke-miterlimit="10" stroke-linejoin="round"/>
</svg>
