<svg width="18" height="18" viewBox="0 0 18 18" fill="none" xmlns="http://www.w3.org/2000/svg">
<path fill-rule="evenodd" clip-rule="evenodd" d="M15.364 2.63606C14.9734 2.24553 14.3403 2.24553 13.9497 2.63606L9 7.5858L4.05025 2.63606C3.65973 2.24553 3.02656 2.24553 2.63604 2.63606C2.24551 3.02658 2.24552 3.65975 2.63604 4.05027L7.58579 9.00002L2.63604 13.9498C2.24552 14.3403 2.24551 14.9735 2.63604 15.364C3.02656 15.7545 3.65973 15.7545 4.05025 15.364L9 10.4142L13.9497 15.364C14.3403 15.7545 14.9734 15.7545 15.364 15.364C15.7545 14.9735 15.7545 14.3403 15.364 13.9498L10.4142 9.00002L15.364 4.05027C15.7545 3.65974 15.7545 3.02658 15.364 2.63606Z" fill="#DD5257"/>
</svg>
