<svg width="48" height="48" viewBox="0 0 48 48" fill="none" xmlns="http://www.w3.org/2000/svg">
<path d="M10.8 10.8H14.4V16.8H33.6V10.8H37.2V21.6H40.8V10.8C40.8 8.80801 39.192 7.20001 37.2 7.20001H28.632C28.104 5.13601 26.232 3.60001 24 3.60001C21.768 3.60001 19.896 5.13601 19.368 7.20001H10.8C8.80801 7.20001 7.20001 8.80801 7.20001 10.8V37.2C7.20001 39.192 8.80801 40.8 10.8 40.8H21.6V37.2H10.8V10.8ZM24 7.20001C24.984 7.20001 25.8 7.99201 25.8 9.00001C25.8 9.98401 24.984 10.8 24 10.8C23.016 10.8 22.2 9.98401 22.2 9.00001C22.2 7.99201 23.016 7.20001 24 7.20001Z" fill="#004A98"/>
<path d="M40.656 38.112C41.496 36.816 42 35.256 42 33.6C42 28.968 38.232 25.2 33.6 25.2C28.968 25.2 25.2 28.968 25.2 33.6C25.2 38.232 28.968 42 33.6 42C35.256 42 36.816 41.496 38.112 40.656L43.056 45.6L45.6 43.056L40.656 38.112ZM33.6 38.4C30.96 38.4 28.8 36.24 28.8 33.6C28.8 32.856 28.968 32.136 29.28 31.512C30.048 29.904 31.704 28.8 33.6 28.8C36.24 28.8 38.4 30.96 38.4 33.6C38.4 36.24 36.24 38.4 33.6 38.4Z" fill="#004A98"/>
</svg>
