<svg width="20" height="20" viewBox="0 0 20 20" fill="none" xmlns="http://www.w3.org/2000/svg">
<g clip-path="url(#clip0_291_12915)">
<path d="M14.9999 7.66675H14.1666M14.9999 7.66675C15.9166 7.66675 16.6666 8.41675 16.6666 9.33342V17.6667C16.6666 18.5834 15.9166 19.3334 14.9999 19.3334H4.99992C4.08325 19.3334 3.33325 18.5834 3.33325 17.6667V9.33342C3.33325 8.41675 4.08325 7.66675 4.99992 7.66675H5.83325H7.41658H12.5833H14.9999ZM9.99992 15.1667C9.08325 15.1667 8.33325 14.4167 8.33325 13.5001C8.33325 12.5834 9.08325 11.8334 9.99992 11.8334C10.9166 11.8334 11.6666 12.5834 11.6666 13.5001C11.6666 14.4167 10.9166 15.1667 9.99992 15.1667Z" stroke="#AAAAAA" stroke-width="2"/>
<path d="M14.1666 7.66658V5.99992C14.1666 3.69992 12.2999 1.83325 9.99992 1.83325C7.69992 1.83325 5.83325 3.69992 5.83325 5.99992V7.66658" stroke="#AAAAAA" stroke-width="2"/>
</g>
<defs>
<clipPath id="clip0_291_12915">
<rect width="20" height="20" fill="white"/>
</clipPath>
</defs>
</svg>
