<svg width="34" height="34" viewBox="0 0 34 34" fill="none" xmlns="http://www.w3.org/2000/svg">
<path fill-rule="evenodd" clip-rule="evenodd" d="M29.0208 4.97919C28.2832 4.24153 27.0872 4.24153 26.3495 4.97919L17 14.3287L7.65048 4.97919C6.91282 4.24153 5.71684 4.24153 4.97918 4.97919C4.24153 5.71685 4.24153 6.91282 4.97918 7.65048L14.3287 17L4.97918 26.3495C4.24153 27.0872 4.24153 28.2832 4.97918 29.0208C5.71684 29.7585 6.91282 29.7585 7.65048 29.0208L17 19.6713L26.3495 29.0208C27.0872 29.7585 28.2832 29.7585 29.0208 29.0208C29.7585 28.2832 29.7585 27.0872 29.0208 26.3495L19.6713 17L29.0208 7.65048C29.7585 6.91282 29.7585 5.71685 29.0208 4.97919Z" fill="white"/>
</svg>
