<svg width="21" height="20" viewBox="0 0 21 20" fill="none" xmlns="http://www.w3.org/2000/svg">
<path d="M4.76953 5.58889V3.88889C4.76953 2.85 5.52346 2 6.56011 2H17.2093C18.1517 2 18.9999 2.85 18.9999 3.88889V17.1111C18.9999 18.15 18.246 19 17.2093 19H6.56011C5.6177 19 4.76953 18.15 4.76953 17.1111V14.9389" stroke="white" stroke-miterlimit="10"/>
<path d="M16.0785 7.66667H11.3665" stroke="white" stroke-miterlimit="10" stroke-linecap="round"/>
<path d="M16.0785 10.5H11.3665" stroke="white" stroke-miterlimit="10" stroke-linecap="round"/>
<path d="M16.0785 13.3333H11.3665" stroke="white" stroke-miterlimit="10" stroke-linecap="round"/>
<path d="M9.48168 5.30556H2.88482C1.84817 5.30556 1 6.15556 1 7.19445V13.8056C1 14.8444 1.84817 15.6944 2.88482 15.6944H9.48168C10.5183 15.6944 11.3665 14.8444 11.3665 13.8056V7.19445C11.3665 6.15556 10.5183 5.30556 9.48168 5.30556ZM8.53927 12.8611H6.65445L6.18325 12.1056L5.71204 12.8611H3.82723L5.24084 10.5L3.82723 8.13889H5.71204L6.18325 8.89445L6.65445 8.13889H8.53927L7.12565 10.5L8.53927 12.8611Z" fill="white"/>
</svg>
