<svg width="99" height="20" viewBox="0 0 99 20" fill="none" xmlns="http://www.w3.org/2000/svg">
<path d="M49.0003 14.3919L54.1503 17.5002L52.7837 11.6419L57.3337 7.7002L51.342 7.19187L49.0003 1.66687L46.6587 7.19187L40.667 7.7002L45.217 11.6419L43.8503 17.5002L49.0003 14.3919Z" fill="white"/>
<path d="M29.0003 14.3919L34.1503 17.5002L32.7837 11.6419L37.3337 7.7002L31.342 7.19187L29.0003 1.66687L26.6587 7.19187L20.667 7.7002L25.217 11.6419L23.8503 17.5002L29.0003 14.3919Z" fill="#BBD0FC"/>
<path d="M89.0003 14.3919L94.1503 17.5002L92.7837 11.6419L97.3337 7.7002L91.342 7.19187L89.0003 1.66687L86.6587 7.19187L80.667 7.7002L85.217 11.6419L83.8503 17.5002L89.0003 14.3919Z" fill="#BBD0FC"/>
<path d="M69.0003 14.3919L74.1503 17.5002L72.7837 11.6419L77.3337 7.7002L71.342 7.19187L69.0003 1.66687L66.6587 7.19187L60.667 7.7002L65.217 11.6419L63.8503 17.5002L69.0003 14.3919Z" fill="#BBD0FC"/>
<path d="M49.0003 14.3919L54.1503 17.5002L52.7837 11.6419L57.3337 7.7002L51.342 7.19187L49.0003 1.66687L46.6587 7.19187L40.667 7.7002L45.217 11.6419L43.8503 17.5002L49.0003 14.3919Z" fill="#BBD0FC"/>
<path d="M9.00032 14.3919L14.1503 17.5002L12.7837 11.6419L17.3337 7.7002L11.342 7.19187L9.00032 1.66687L6.65866 7.19187L0.666992 7.7002L5.21699 11.6419L3.85033 17.5002L9.00032 14.3919Z" fill="#BBD0FC"/>
</svg>
