<?xml version="1.0" encoding="utf-8"?>
<!-- Generator: Adobe Illustrator 16.0.0, SVG Export Plug-In . SVG Version: 6.00 Build 0)  -->
<!DOCTYPE svg PUBLIC "-//W3C//DTD SVG 1.1//EN" "http://www.w3.org/Graphics/SVG/1.1/DTD/svg11.dtd">
<svg version="1.1" id="Layer_1" xmlns="http://www.w3.org/2000/svg" xmlns:xlink="http://www.w3.org/1999/xlink" x="0px" y="0px"
	 width="100px" height="70px" viewBox="0 0 100 70" enable-background="new 0 0 100 70" xml:space="preserve">
<g>
	<g>
		<path fill="#8FC31F" d="M43.001,11.964c1.189-1.157,2.674-2.035,4.375-2.487c0.912-0.243,1.828-0.349,2.727-0.334
			c1.005-0.832,2.726-1.915,5.125-2.183c1.936-0.215,4.391,0.232,5.984,1.197c1.793,1.088,3.133,2.367,4.113,3.754
			C61.937,4.737,53.817,0.7,45.9,2.648c-3.988,0.98-7.285,3.285-9.555,6.322c-0.701,0.938-1.268,1.945-1.699,2.994H43.001z"/>
		<path fill="#8FC31F" d="M36.376,17.442h-2.771c0.043,2.846,0.965,5.671,2.771,8.025V17.442z"/>
		<path fill="#8FC31F" d="M43,26.36h-5.873c1.828,1.994,4.387,3.51,7.906,3.315c1.15-0.063,2.146-0.376,2.994-0.687
			C46.13,28.616,44.384,27.696,43,26.36"/>
		<path fill="#005BAB" d="M51.206,10.503c1.277-0.299,3.645-0.479,5.609,1.461h5.4c0.941,0,1.822,0.256,2.637,0.752
			c-0.982-1.318-2.365-2.527-4.258-3.541c-1.561-0.834-3.26-1.297-5.102-1.137c-2.422,0.211-3.844,1.216-4.576,1.951
			C50.7,10.208,50.905,10.573,51.206,10.503"/>
		<path fill="#005BAB" d="M65.886,21.374c-1.043,1.021-2.313,1.561-3.67,1.561h-0.961v3.426h-4.053
			c-0.26,0.711-0.512,1.244-0.725,1.514c-1.813,2.299-2.504,0.222-2.709-0.395c-0.006-0.018-0.012-0.035-0.018-0.052
			c-0.262-0.758-1.324-0.798-1.621-0.052c-0.584,1.471-2.273,3.3-6.951,3.889c-8.443,1.063-11.363-7.982-12.109-9.681
			c0.201,1.681,0.66,3.374,1.4,5.034c3.096,6.935,10.553,10.953,18.054,9.767c4.674-0.739,8.607-3.196,11.084-6.685
			c0.385-0.543,0.711-1.076,0.986-1.596c1.053-1.982,2.213-5.004,2.338-8.183C66.671,20.456,66.323,20.944,65.886,21.374"/>
		<polygon fill="#005BAB" points="43.99,13.2 34.3,13.2 34.3,16.206 37.615,16.206 37.615,25.123 40.722,25.123 40.722,16.206 
			43.99,16.206 		"/>
		<path fill="#005BAB" d="M49.837,13.021c-1.713,0-3.189,0.617-4.387,1.838c-1.197,1.219-1.805,2.725-1.805,4.477
			c0,1.763,0.607,3.271,1.805,4.484c1.199,1.215,2.674,1.832,4.387,1.832c1.722,0,3.201-0.617,4.394-1.832
			c1.191-1.213,1.795-2.723,1.795-4.484c0-1.75-0.607-3.256-1.803-4.477C53.024,13.638,51.548,13.021,49.837,13.021 M47.654,16.981
			c0.598-0.645,1.313-0.957,2.184-0.957c0.871,0,1.583,0.314,2.181,0.963c0.605,0.658,0.898,1.426,0.898,2.348
			c0,0.934-0.295,1.703-0.904,2.354c-0.604,0.645-1.314,0.959-2.175,0.959c-0.873,0-1.588-0.31-2.186-0.943
			c-0.604-0.641-0.896-1.414-0.896-2.369C46.755,18.401,47.05,17.632,47.654,16.981"/>
	</g>
	<path fill="#005BAB" d="M64.989,14.36c-0.834-0.77-1.766-1.16-2.773-1.16h-5.309v11.923h3.109v-3.425h2.199
		c1.043,0,1.986-0.406,2.803-1.207c0.82-0.803,1.236-1.826,1.236-3.041C66.255,16.175,65.829,15.135,64.989,14.36 M60.017,16.206
		h2.059c0.256,0,0.498,0.097,0.74,0.295c0.219,0.178,0.33,0.497,0.33,0.949c0,0.451-0.111,0.77-0.33,0.947
		c-0.242,0.199-0.484,0.295-0.74,0.295h-2.059V16.206z"/>
</g>
<g>
	<path fill="#005BAB" d="M0.395,53.814V47.29H6.15v1.569H2.199v0.908h3.827v1.527H2.199v0.979h2.078
		c1.093,0,2.207-0.068,3.346-0.207v-5.202h1.845v2.765h1.652v1.652H9.467v2.617H7.623v-0.305c-1.064,0.148-2.235,0.221-3.51,0.221
		H0.395z M9.467,59.184H1.524v-4.93h1.831v0.938h4.281v-0.938h1.831V59.184z M7.636,56.734H3.355v0.881h4.281V56.734z"/>
	<path fill="#005BAB" d="M24.665,47.497v3.729c0,1.826-0.142,3.387-0.427,4.68h1.914v1.652H15.083v-1.652h7.353
		c0.183-0.889,0.302-1.834,0.357-2.836h-6.649v-1.555h6.676v-2.367h-6.594v-1.651H24.665z"/>
	<path fill="#005BAB" d="M27.625,56.348v-5.383h4.048v-2.023h-4.048v-1.624h5.878v5.243h-4.047v2.176h2.34
		c1.101,0,2.203-0.092,3.304-0.275v-7.599h1.846v12.321h-1.846V56.1c-1.055,0.166-2.216,0.248-3.482,0.248H27.625z"/>
	<path fill="#005BAB" d="M39.187,53.154v-5.946h1.846v4.335h1.872c1.155,0.01,2.418-0.086,3.784-0.289v-4.39h1.847v7.103h-1.847
		v-1.115c-1.329,0.219-2.633,0.32-3.908,0.303H39.187z M48.301,56.773c0,0.414-0.09,0.803-0.269,1.164
		c-0.18,0.361-0.42,0.686-0.723,0.971c-0.303,0.266-0.658,0.482-1.066,0.646c-0.409,0.166-0.848,0.248-1.315,0.248
		s-0.907-0.082-1.314-0.248c-0.408-0.164-0.769-0.381-1.081-0.646c-0.293-0.285-0.529-0.609-0.708-0.971
		c-0.181-0.361-0.27-0.75-0.27-1.164c0-0.412,0.089-0.799,0.27-1.162c0.179-0.361,0.415-0.682,0.708-0.957
		c0.313-0.275,0.673-0.496,1.081-0.66c0.407-0.166,0.847-0.248,1.314-0.248s0.906,0.082,1.315,0.248
		c0.408,0.164,0.764,0.385,1.066,0.66s0.543,0.596,0.723,0.957C48.211,55.975,48.301,56.361,48.301,56.773 M46.457,56.773
		c0-0.402-0.151-0.74-0.454-1.012c-0.303-0.27-0.661-0.406-1.074-0.406c-0.412,0-0.771,0.137-1.074,0.406
		c-0.303,0.271-0.453,0.609-0.453,1.012c0,0.404,0.15,0.742,0.453,1.012c0.304,0.271,0.662,0.408,1.074,0.408
		c0.413,0,0.771-0.137,1.074-0.408C46.305,57.516,46.457,57.178,46.457,56.773"/>
	<path fill="#005BAB" d="M56.642,51.088c-0.035,0.139-0.082,0.271-0.137,0.4c-0.184,0.385-0.426,0.717-0.729,0.99
		c-0.313,0.295-0.678,0.525-1.096,0.695s-0.859,0.256-1.328,0.256s-0.91-0.086-1.328-0.256s-0.783-0.4-1.096-0.695
		c-0.303-0.273-0.543-0.605-0.723-0.99c-0.177-0.387-0.266-0.793-0.266-1.227c0-0.43,0.089-0.84,0.266-1.223
		c0.18-0.387,0.42-0.717,0.723-0.991c0.313-0.295,0.678-0.527,1.096-0.695c0.418-0.17,0.859-0.256,1.328-0.256
		s0.91,0.086,1.328,0.256c0.418,0.168,0.783,0.4,1.096,0.695c0.303,0.274,0.545,0.604,0.729,0.991
		c0.064,0.145,0.115,0.293,0.152,0.439h1.623v-2.614h1.846v6.647H58.28v-2.424H56.642z M54.921,50.262c0-0.43-0.154-0.797-0.467-1.1
		s-0.68-0.455-1.102-0.455s-0.789,0.152-1.102,0.455s-0.469,0.67-0.469,1.1c0,0.434,0.156,0.799,0.469,1.104
		c0.313,0.303,0.68,0.453,1.102,0.453s0.789-0.15,1.102-0.453C54.767,51.061,54.921,50.695,54.921,50.262 M60.126,59.184h-7.943
		v-5.26h1.83v1.006h4.281v-1.006h1.832V59.184z M58.294,56.43h-4.281v1.186h4.281V56.43z"/>
	<path fill="#005BAB" d="M70.546,56.168h-4.9v-8.767h4.9v3.452h0.963v-3.989H73.3v12.319h-1.791v-6.705h-0.963V56.168z
		 M68.771,49.039h-1.35v5.492h1.35V49.039z M73.987,46.864h1.816v12.319h-1.816V46.864z"/>
	<path fill="#005BAB" d="M83.019,47.401c0,2.21-0.514,4.091-1.543,5.642c-0.916,1.396-2.189,2.617-3.813,3.662l-1.254-1.279
		c1.506-0.928,2.658-1.996,3.457-3.209c0.67-1,1.051-2.055,1.143-3.166H77.14v-1.649H83.019z M88.071,50.869v1.68h-1.764v6.635
		h-1.844V46.864h1.844v4.005H88.071z"/>
	<path fill="#005BAB" d="M92.765,48.226c0,0.964,0.248,1.761,0.744,2.396c0.486,0.625,1.205,1.184,2.16,1.678l-1.088,1.227
		c-1.082-0.496-1.941-1.166-2.574-2.01c-0.045-0.064-0.092-0.125-0.137-0.178c-0.074,0.109-0.156,0.215-0.248,0.314
		c-0.715,0.816-1.57,1.502-2.561,2.053l-1.143-1.24c0.973-0.504,1.711-1.082,2.217-1.734c0.504-0.65,0.758-1.486,0.758-2.505v-1.045
		h1.871V48.226z M97.954,59.184h-7.943v-5.26h1.832v1.006h4.281v-1.006h1.83V59.184z M96.124,56.43h-4.281v1.186h4.281V56.43z
		 M97.954,46.862v1.379h1.652v1.485h-1.652v1.115h1.652v1.486h-1.652v1.184H96.11v-6.649H97.954z"/>
</g>
<g>
	<path fill="#005BAB" d="M23.738,64.492c0.205,0.18,0.337,0.422,0.394,0.725c0.007,0.045-0.003,0.086-0.028,0.125
		c-0.022,0.031-0.054,0.051-0.095,0.061c-0.038,0.01-0.073,0.004-0.104-0.02c-0.038-0.025-0.062-0.066-0.071-0.123
		c-0.054-0.275-0.181-0.482-0.38-0.621c-0.18-0.127-0.407-0.189-0.683-0.189c-0.361,0-0.653,0.131-0.878,0.393
		c-0.234,0.283-0.352,0.672-0.352,1.168c0,0.51,0.117,0.902,0.352,1.178c0.218,0.256,0.511,0.383,0.878,0.383
		c0.278,0,0.504-0.064,0.679-0.193c0.195-0.148,0.328-0.385,0.398-0.707c0.009-0.051,0.033-0.088,0.071-0.109
		c0.034-0.02,0.072-0.023,0.113-0.014c0.044,0.008,0.077,0.031,0.1,0.066c0.025,0.037,0.032,0.084,0.02,0.141
		c-0.076,0.316-0.216,0.566-0.418,0.75c-0.24,0.223-0.562,0.332-0.963,0.332c-0.456,0-0.821-0.162-1.097-0.488
		c-0.284-0.328-0.427-0.775-0.427-1.338c0-0.551,0.143-0.992,0.427-1.328c0.278-0.332,0.644-0.498,1.097-0.498
		C23.174,64.184,23.498,64.285,23.738,64.492z"/>
	<path fill="#005BAB" d="M24.768,64.221c0.028-0.025,0.063-0.037,0.104-0.037c0.038,0,0.071,0.012,0.1,0.037
		c0.031,0.029,0.048,0.068,0.048,0.119v2.941c0,0.057,0.016,0.105,0.047,0.143c0.038,0.045,0.092,0.066,0.161,0.066h1.462
		c0.048,0,0.085,0.014,0.114,0.037c0.024,0.025,0.037,0.059,0.037,0.096c0,0.035-0.013,0.064-0.037,0.09
		c-0.029,0.029-0.066,0.043-0.114,0.043h-1.514c-0.146,0-0.26-0.047-0.342-0.143c-0.072-0.086-0.109-0.189-0.109-0.313V64.34
		C24.725,64.289,24.74,64.25,24.768,64.221z"/>
	<path fill="#005BAB" d="M29.49,64.301c0.025,0.025,0.038,0.059,0.038,0.096c0,0.035-0.013,0.064-0.038,0.09
		c-0.028,0.029-0.064,0.043-0.109,0.043h-1.68c-0.069,0-0.123,0.021-0.161,0.066c-0.031,0.039-0.047,0.088-0.047,0.146v1.072h1.722
		c0.048,0,0.086,0.014,0.114,0.039c0.025,0.025,0.038,0.057,0.038,0.094c0,0.035-0.013,0.066-0.038,0.092
		c-0.028,0.027-0.066,0.041-0.114,0.041h-1.722v1.201c0,0.057,0.016,0.105,0.047,0.143c0.038,0.045,0.092,0.066,0.161,0.066h1.742
		c0.047,0,0.085,0.014,0.113,0.037c0.025,0.025,0.038,0.059,0.038,0.096c0,0.035-0.013,0.064-0.038,0.09
		c-0.028,0.029-0.066,0.043-0.113,0.043h-1.794c-0.146,0-0.26-0.047-0.342-0.143c-0.072-0.086-0.109-0.189-0.109-0.313v-2.576
		c0-0.127,0.037-0.232,0.109-0.318c0.082-0.096,0.196-0.143,0.342-0.143h1.731C29.425,64.264,29.461,64.277,29.49,64.301z"/>
	<path fill="#005BAB" d="M31.034,64.24c0.048-0.035,0.102-0.053,0.161-0.053c0.054,0,0.104,0.018,0.152,0.053
		c0.05,0.037,0.088,0.094,0.113,0.166l1.177,3.217c0.016,0.047,0.015,0.092-0.005,0.133c-0.016,0.035-0.042,0.059-0.08,0.07
		c-0.038,0.014-0.076,0.012-0.114-0.004c-0.038-0.021-0.066-0.057-0.085-0.104l-0.398-1.105h-1.523l-0.403,1.105
		c-0.019,0.047-0.049,0.082-0.09,0.104c-0.035,0.02-0.071,0.021-0.109,0.01c-0.038-0.014-0.066-0.039-0.086-0.076
		c-0.019-0.037-0.017-0.082,0.005-0.133l1.172-3.217C30.945,64.334,30.983,64.277,31.034,64.24z M31.855,66.352L31.2,64.549h-0.014
		l-0.66,1.803H31.855z"/>
	<path fill="#005BAB" d="M33.193,64.184c0.095-0.014,0.168,0.02,0.219,0.1l0.161,0.236l1.665,2.771v-2.98
		c0-0.041,0.015-0.074,0.043-0.1c0.028-0.018,0.063-0.027,0.104-0.027s0.076,0.01,0.104,0.033c0.031,0.021,0.047,0.053,0.047,0.094
		v3.322c0,0.107-0.042,0.172-0.128,0.193c-0.085,0.025-0.146,0.006-0.185-0.061l-0.266-0.389l-1.608-2.652v2.945
		c0,0.055-0.017,0.098-0.048,0.129c-0.028,0.027-0.063,0.043-0.104,0.043c-0.041-0.004-0.076-0.02-0.104-0.049
		c-0.028-0.031-0.043-0.072-0.043-0.123v-3.297C33.05,64.262,33.098,64.199,33.193,64.184z"/>
	<path fill="#005BAB" d="M36.382,64.221c0.029-0.025,0.063-0.037,0.104-0.037c0.038,0,0.071,0.012,0.1,0.037
		c0.032,0.029,0.048,0.068,0.048,0.119v3.346c0,0.047-0.016,0.084-0.048,0.113c-0.028,0.025-0.062,0.037-0.1,0.037
		c-0.041,0-0.075-0.012-0.104-0.037c-0.028-0.029-0.042-0.066-0.042-0.113V64.34C36.34,64.289,36.354,64.25,36.382,64.221z"/>
	<path fill="#005BAB" d="M37.57,64.184c0.095-0.014,0.168,0.02,0.219,0.1l0.161,0.236l1.665,2.771v-2.98
		c0-0.041,0.015-0.074,0.043-0.1c0.028-0.018,0.063-0.027,0.104-0.027s0.076,0.01,0.104,0.033c0.031,0.021,0.047,0.053,0.047,0.094
		v3.322c0,0.107-0.042,0.172-0.128,0.193c-0.085,0.025-0.146,0.006-0.185-0.061l-0.266-0.389l-1.608-2.652v2.945
		c0,0.055-0.017,0.098-0.048,0.129c-0.028,0.027-0.063,0.043-0.104,0.043c-0.041-0.004-0.076-0.02-0.104-0.049
		c-0.028-0.031-0.043-0.072-0.043-0.123v-3.297C37.427,64.262,37.475,64.199,37.57,64.184z"/>
	<path fill="#005BAB" d="M43.126,64.486c0.205,0.164,0.34,0.383,0.403,0.654c0.01,0.051,0.002,0.094-0.023,0.129
		c-0.025,0.031-0.061,0.051-0.104,0.057c-0.041,0.006-0.079-0.002-0.114-0.023c-0.041-0.021-0.064-0.057-0.071-0.104
		c-0.051-0.248-0.174-0.436-0.37-0.564c-0.192-0.125-0.442-0.186-0.749-0.186c-0.399,0-0.712,0.131-0.939,0.393
		c-0.237,0.275-0.356,0.666-0.356,1.168c0,0.516,0.119,0.908,0.356,1.178c0.225,0.256,0.537,0.383,0.939,0.383
		c0.341,0,0.616-0.098,0.825-0.293c0.247-0.234,0.37-0.592,0.37-1.072h-1.058c-0.089,0-0.134-0.045-0.134-0.133
		c0-0.09,0.045-0.133,0.134-0.133h1.139c0.066,0,0.118,0.021,0.156,0.066c0.038,0.041,0.057,0.092,0.057,0.15v1.471
		c0,0.049-0.016,0.086-0.047,0.115c-0.028,0.025-0.062,0.037-0.1,0.037c-0.042,0-0.076-0.012-0.104-0.037
		c-0.028-0.029-0.043-0.066-0.043-0.115v-0.455c-0.104,0.215-0.256,0.379-0.455,0.488c-0.206,0.117-0.453,0.176-0.74,0.176
		c-0.49,0-0.878-0.162-1.163-0.488c-0.288-0.326-0.432-0.771-0.432-1.338c0-0.553,0.144-0.996,0.432-1.328
		c0.291-0.332,0.679-0.498,1.163-0.498C42.527,64.184,42.871,64.285,43.126,64.486z"/>
	<path fill="#005BAB" d="M45.728,64.227c0.028-0.025,0.063-0.039,0.104-0.039c0.038,0,0.071,0.012,0.1,0.033
		c0.031,0.029,0.048,0.068,0.048,0.119v2.207c0,0.281,0.075,0.516,0.228,0.701c0.177,0.215,0.429,0.322,0.754,0.322
		c0.326,0,0.576-0.107,0.75-0.322c0.152-0.184,0.228-0.418,0.228-0.701v-2.236c0-0.041,0.015-0.074,0.043-0.1
		c0.028-0.018,0.063-0.027,0.104-0.027c0.038,0,0.071,0.012,0.1,0.037c0.031,0.023,0.048,0.057,0.048,0.1v2.221
		c0,0.355-0.102,0.65-0.304,0.887c-0.229,0.273-0.551,0.408-0.969,0.408c-0.42,0-0.744-0.135-0.973-0.408
		c-0.202-0.236-0.304-0.531-0.304-0.887V64.34C45.685,64.293,45.7,64.254,45.728,64.227z"/>
	<path fill="#005BAB" d="M51.101,64.568c0.164,0.182,0.246,0.408,0.246,0.678c0,0.262-0.082,0.486-0.246,0.668
		c-0.18,0.207-0.424,0.309-0.73,0.309h-1.101v1.463c0,0.047-0.017,0.084-0.048,0.113c-0.028,0.025-0.062,0.037-0.1,0.037
		c-0.041,0-0.076-0.012-0.104-0.037c-0.028-0.029-0.043-0.066-0.043-0.113v-2.961c0-0.127,0.037-0.232,0.109-0.318
		c0.082-0.096,0.196-0.143,0.342-0.143h0.945C50.677,64.264,50.921,64.365,51.101,64.568z M50.868,65.74
		c0.119-0.137,0.18-0.299,0.18-0.49c0-0.195-0.061-0.361-0.18-0.498c-0.133-0.148-0.313-0.223-0.537-0.223h-0.854
		c-0.069,0-0.123,0.021-0.161,0.066c-0.031,0.039-0.047,0.088-0.047,0.146v1.221h1.062C50.556,65.963,50.735,65.889,50.868,65.74z"
		/>
	<path fill="#005BAB" d="M53.419,64.25c0.037-0.039,0.086-0.061,0.146-0.066c0.061-0.004,0.113,0.01,0.16,0.037
		c0.051,0.031,0.086,0.074,0.105,0.129l0.104,0.303l0.939,2.748l0.949-2.758l0.096-0.279c0.02-0.061,0.053-0.107,0.104-0.143
		c0.051-0.027,0.105-0.039,0.162-0.033c0.057,0.004,0.104,0.023,0.143,0.063c0.043,0.041,0.066,0.096,0.066,0.166v3.27
		c0,0.047-0.016,0.084-0.049,0.113c-0.027,0.025-0.063,0.037-0.104,0.037s-0.076-0.012-0.104-0.037
		c-0.029-0.029-0.043-0.066-0.043-0.113v-3.014l-1.012,2.988c-0.051,0.117-0.121,0.176-0.213,0.176
		c-0.088,0-0.158-0.059-0.209-0.176l-1.01-2.988v3.014c0,0.047-0.018,0.084-0.049,0.113c-0.027,0.025-0.061,0.037-0.1,0.037
		c-0.041,0-0.076-0.012-0.104-0.037c-0.029-0.029-0.043-0.066-0.043-0.113v-3.27C53.356,64.346,53.376,64.291,53.419,64.25z"/>
	<path fill="#005BAB" d="M59.431,64.301c0.025,0.025,0.037,0.059,0.037,0.096c0,0.035-0.012,0.064-0.037,0.09
		c-0.029,0.029-0.064,0.043-0.109,0.043h-1.68c-0.07,0-0.123,0.021-0.162,0.066c-0.031,0.039-0.047,0.088-0.047,0.146v1.072h1.723
		c0.047,0,0.086,0.014,0.113,0.039c0.025,0.025,0.039,0.057,0.039,0.094c0,0.035-0.014,0.066-0.039,0.092
		c-0.027,0.027-0.066,0.041-0.113,0.041h-1.723v1.201c0,0.057,0.016,0.105,0.047,0.143c0.039,0.045,0.092,0.066,0.162,0.066h1.742
		c0.047,0,0.084,0.014,0.113,0.037c0.025,0.025,0.037,0.059,0.037,0.096c0,0.035-0.012,0.064-0.037,0.09
		c-0.029,0.029-0.066,0.043-0.113,0.043h-1.795c-0.145,0-0.26-0.047-0.342-0.143c-0.072-0.086-0.109-0.189-0.109-0.313v-2.576
		c0-0.127,0.037-0.232,0.109-0.318c0.082-0.096,0.197-0.143,0.342-0.143h1.732C59.366,64.264,59.401,64.277,59.431,64.301z"/>
	<path fill="#005BAB" d="M62.458,64.486c0.205,0.164,0.34,0.383,0.402,0.654c0.01,0.051,0.002,0.094-0.023,0.129
		c-0.025,0.031-0.061,0.051-0.104,0.057c-0.041,0.006-0.08-0.002-0.115-0.023c-0.041-0.021-0.064-0.057-0.07-0.104
		c-0.051-0.248-0.174-0.436-0.371-0.564c-0.191-0.125-0.441-0.186-0.748-0.186c-0.4,0-0.713,0.131-0.939,0.393
		c-0.238,0.275-0.357,0.666-0.357,1.168c0,0.516,0.119,0.908,0.357,1.178c0.225,0.256,0.537,0.383,0.939,0.383
		c0.34,0,0.615-0.098,0.824-0.293c0.248-0.234,0.371-0.592,0.371-1.072h-1.059c-0.088,0-0.133-0.045-0.133-0.133
		c0-0.09,0.045-0.133,0.133-0.133h1.139c0.066,0,0.119,0.021,0.156,0.066c0.039,0.041,0.057,0.092,0.057,0.15v1.471
		c0,0.049-0.016,0.086-0.047,0.115c-0.027,0.025-0.061,0.037-0.1,0.037c-0.041,0-0.076-0.012-0.104-0.037
		c-0.029-0.029-0.043-0.066-0.043-0.115v-0.455c-0.105,0.215-0.256,0.379-0.455,0.488c-0.207,0.117-0.453,0.176-0.74,0.176
		c-0.49,0-0.879-0.162-1.164-0.488c-0.287-0.326-0.432-0.771-0.432-1.338c0-0.553,0.145-0.996,0.432-1.328
		c0.291-0.332,0.68-0.498,1.164-0.498C61.858,64.184,62.202,64.285,62.458,64.486z"/>
	<path fill="#005BAB" d="M64.548,64.24c0.047-0.035,0.102-0.053,0.16-0.053c0.055,0,0.105,0.018,0.152,0.053
		c0.051,0.037,0.088,0.094,0.113,0.166l1.178,3.217c0.016,0.047,0.014,0.092-0.006,0.133c-0.016,0.035-0.041,0.059-0.08,0.07
		c-0.037,0.014-0.076,0.012-0.113-0.004c-0.039-0.021-0.066-0.057-0.086-0.104l-0.398-1.105h-1.523l-0.402,1.105
		c-0.02,0.047-0.049,0.082-0.09,0.104c-0.035,0.02-0.072,0.021-0.109,0.01c-0.039-0.014-0.066-0.039-0.086-0.076
		s-0.018-0.082,0.004-0.133l1.172-3.217C64.458,64.334,64.497,64.277,64.548,64.24z M65.368,66.352l-0.654-1.803H64.7l-0.66,1.803
		H65.368z"/>
	<path fill="#005BAB" d="M68.511,64.469c0.145,0.141,0.236,0.33,0.275,0.564c0.008,0.059,0,0.107-0.029,0.146
		c-0.021,0.035-0.055,0.055-0.1,0.061c-0.041,0.004-0.078-0.008-0.113-0.033c-0.035-0.023-0.057-0.063-0.063-0.113
		c-0.037-0.225-0.125-0.389-0.26-0.492c-0.137-0.102-0.328-0.152-0.574-0.152c-0.266,0-0.475,0.049-0.627,0.146
		c-0.162,0.105-0.242,0.254-0.242,0.451c0,0.195,0.063,0.348,0.189,0.455c0.133,0.113,0.371,0.205,0.717,0.275
		c0.453,0.092,0.771,0.223,0.959,0.395c0.18,0.164,0.27,0.398,0.27,0.701c0,0.297-0.123,0.535-0.369,0.713
		c-0.229,0.166-0.514,0.25-0.859,0.25c-0.389,0-0.688-0.082-0.896-0.246c-0.229-0.174-0.357-0.443-0.389-0.811
		c-0.008-0.051,0.006-0.092,0.037-0.125c0.025-0.023,0.057-0.039,0.096-0.041c0.041-0.004,0.076,0.008,0.104,0.033
		c0.031,0.027,0.051,0.068,0.057,0.123c0.023,0.285,0.121,0.492,0.295,0.621c0.154,0.121,0.385,0.18,0.688,0.18
		c0.229,0,0.432-0.051,0.613-0.156c0.217-0.123,0.326-0.293,0.326-0.508c0-0.234-0.057-0.406-0.17-0.518
		c-0.137-0.133-0.406-0.244-0.813-0.336c-0.389-0.092-0.67-0.203-0.844-0.332c-0.205-0.158-0.309-0.379-0.309-0.664
		c0-0.275,0.104-0.49,0.313-0.646c0.213-0.15,0.504-0.227,0.873-0.227C68.032,64.184,68.313,64.277,68.511,64.469z"/>
	<path fill="#005BAB" d="M69.521,64.221c0.029-0.025,0.064-0.037,0.105-0.037c0.037,0,0.07,0.012,0.1,0.037
		c0.031,0.029,0.047,0.068,0.047,0.119v1.408h2.051V64.34c0-0.051,0.014-0.09,0.041-0.119c0.029-0.025,0.064-0.037,0.105-0.037
		c0.037,0,0.07,0.012,0.1,0.037c0.031,0.029,0.047,0.068,0.047,0.119v3.346c0,0.047-0.016,0.084-0.047,0.113
		c-0.029,0.025-0.063,0.037-0.1,0.037c-0.041,0-0.076-0.012-0.105-0.037c-0.027-0.029-0.041-0.066-0.041-0.113v-1.672h-2.051v1.672
		c0,0.047-0.016,0.084-0.047,0.113c-0.029,0.025-0.063,0.037-0.1,0.037c-0.041,0-0.076-0.012-0.105-0.037
		c-0.027-0.029-0.043-0.066-0.043-0.113V64.34C69.478,64.289,69.493,64.25,69.521,64.221z"/>
	<path fill="#005BAB" d="M75.472,64.742c0.254,0.332,0.381,0.756,0.381,1.268s-0.127,0.934-0.381,1.262
		c-0.283,0.377-0.686,0.564-1.205,0.564c-0.521,0-0.924-0.188-1.209-0.564c-0.246-0.328-0.371-0.75-0.371-1.262
		s0.125-0.936,0.371-1.268c0.285-0.373,0.688-0.559,1.209-0.559C74.786,64.184,75.188,64.369,75.472,64.742z M73.28,64.914
		c-0.199,0.275-0.299,0.641-0.299,1.096c0,0.453,0.1,0.818,0.299,1.096c0.225,0.314,0.555,0.471,0.986,0.471s0.76-0.156,0.988-0.471
		c0.201-0.281,0.303-0.646,0.303-1.096c0-0.453-0.102-0.818-0.303-1.096c-0.229-0.313-0.557-0.471-0.988-0.471
		S73.505,64.602,73.28,64.914z"/>
	<path fill="#005BAB" d="M78.542,64.568c0.166,0.182,0.248,0.408,0.248,0.678c0,0.262-0.082,0.486-0.248,0.668
		c-0.18,0.207-0.424,0.309-0.73,0.309h-1.1v1.463c0,0.047-0.018,0.084-0.049,0.113c-0.027,0.025-0.061,0.037-0.1,0.037
		c-0.041,0-0.076-0.012-0.104-0.037c-0.029-0.029-0.043-0.066-0.043-0.113v-2.961c0-0.127,0.037-0.232,0.109-0.318
		c0.082-0.096,0.195-0.143,0.342-0.143h0.943C78.118,64.264,78.362,64.365,78.542,64.568z M78.31,65.74
		c0.121-0.137,0.182-0.299,0.182-0.49c0-0.195-0.061-0.361-0.182-0.498c-0.133-0.148-0.311-0.223-0.535-0.223h-0.855
		c-0.068,0-0.123,0.021-0.16,0.066c-0.031,0.039-0.047,0.088-0.047,0.146v1.221h1.063C77.999,65.963,78.177,65.889,78.31,65.74z"/>
</g>
</svg>
