<svg width="100" height="70" viewBox="0 0 100 70" fill="none" xmlns="http://www.w3.org/2000/svg">
<path d="M43.001 11.964C44.19 10.807 45.675 9.929 47.376 9.477C48.288 9.234 49.204 9.128 50.103 9.143C51.108 8.311 52.829 7.228 55.228 6.96C57.164 6.745 59.619 7.192 61.212 8.157C63.005 9.245 64.345 10.524 65.325 11.911C61.937 4.737 53.817 0.699999 45.9 2.648C41.912 3.628 38.615 5.933 36.345 8.97C35.644 9.908 35.077 10.915 34.646 11.964H43.001Z" fill="white"/>
<path d="M36.376 17.442H33.605C33.648 20.288 34.57 23.113 36.376 25.467V17.442Z" fill="white"/>
<path d="M43 26.36H37.127C38.955 28.354 41.514 29.87 45.033 29.675C46.183 29.612 47.179 29.299 48.027 28.988C46.13 28.616 44.384 27.696 43 26.36Z" fill="white"/>
<path d="M51.206 10.503C52.483 10.204 54.851 10.024 56.815 11.964H62.215C63.156 11.964 64.037 12.22 64.852 12.716C63.87 11.398 62.487 10.189 60.594 9.175C59.033 8.341 57.334 7.878 55.492 8.038C53.07 8.249 51.648 9.254 50.916 9.989C50.7 10.208 50.905 10.573 51.206 10.503Z" fill="white"/>
<path d="M65.886 21.374C64.843 22.395 63.573 22.935 62.216 22.935H61.255V26.361H57.202C56.942 27.072 56.69 27.605 56.477 27.875C54.664 30.174 53.973 28.097 53.768 27.48C53.762 27.462 53.756 27.445 53.75 27.428C53.488 26.67 52.426 26.63 52.129 27.376C51.545 28.847 49.856 30.676 45.178 31.265C36.735 32.328 33.815 23.283 33.069 21.584C33.27 23.265 33.729 24.958 34.469 26.618C37.565 33.553 45.022 37.571 52.523 36.385C57.197 35.646 61.13 33.189 63.607 29.7C63.992 29.157 64.318 28.624 64.593 28.104C65.646 26.122 66.806 23.1 66.931 19.921C66.671 20.456 66.323 20.944 65.886 21.374Z" fill="white"/>
<path d="M43.99 13.2H34.3V16.206H37.615V25.123H40.722V16.206H43.99V13.2Z" fill="white"/>
<path d="M49.837 13.021C48.124 13.021 46.648 13.638 45.45 14.859C44.253 16.078 43.645 17.584 43.645 19.336C43.645 21.099 44.252 22.607 45.45 23.82C46.649 25.035 48.124 25.652 49.837 25.652C51.559 25.652 53.038 25.035 54.231 23.82C55.422 22.607 56.026 21.097 56.026 19.336C56.026 17.586 55.419 16.08 54.223 14.859C53.024 13.638 51.548 13.021 49.837 13.021ZM47.654 16.981C48.252 16.336 48.967 16.024 49.838 16.024C50.709 16.024 51.421 16.338 52.019 16.987C52.624 17.645 52.917 18.413 52.917 19.335C52.917 20.269 52.622 21.038 52.013 21.689C51.409 22.334 50.699 22.648 49.838 22.648C48.965 22.648 48.25 22.338 47.652 21.705C47.048 21.064 46.756 20.291 46.756 19.336C46.755 18.401 47.05 17.632 47.654 16.981Z" fill="white"/>
<path d="M64.989 14.36C64.155 13.59 63.223 13.2 62.216 13.2H56.907V25.123H60.016V21.698H62.215C63.258 21.698 64.201 21.292 65.018 20.491C65.838 19.688 66.254 18.665 66.254 17.45C66.255 16.175 65.829 15.135 64.989 14.36ZM60.017 16.206H62.076C62.332 16.206 62.574 16.303 62.816 16.501C63.035 16.679 63.146 16.998 63.146 17.45C63.146 17.901 63.035 18.22 62.816 18.397C62.574 18.596 62.332 18.692 62.076 18.692H60.017V16.206Z" fill="white"/>
<path d="M0.39502 53.814V47.29H6.15002V48.859H2.19902V49.767H6.02602V51.294H2.19902V52.273H4.27702C5.37002 52.273 6.48402 52.205 7.62302 52.066V46.864H9.46802V49.629H11.12V51.281H9.46702V53.898H7.62302V53.593C6.55902 53.741 5.38802 53.814 4.11302 53.814H0.39502ZM9.46702 59.184H1.52402V54.254H3.35502V55.192H7.63602V54.254H9.46702V59.184V59.184ZM7.63602 56.734H3.35502V57.615H7.63602V56.734V56.734Z" fill="white"/>
<path d="M24.665 47.497V51.226C24.665 53.052 24.523 54.613 24.238 55.906H26.152V57.558H15.083V55.906H22.436C22.619 55.017 22.738 54.072 22.793 53.07H16.144V51.515H22.82V49.148H16.226V47.497H24.665Z" fill="white"/>
<path d="M27.625 56.348V50.965H31.673V48.942H27.625V47.318H33.503V52.561H29.456V54.737H31.796C32.897 54.737 33.999 54.645 35.1 54.462V46.863H36.946V59.184H35.1V56.1C34.045 56.266 32.884 56.348 31.618 56.348H27.625Z" fill="white"/>
<path d="M39.187 53.154V47.208H41.033V51.543H42.905C44.06 51.553 45.323 51.457 46.689 51.254V46.864H48.536V53.967H46.689V52.852C45.36 53.071 44.056 53.172 42.781 53.155H39.187V53.154ZM48.301 56.773C48.301 57.187 48.211 57.576 48.032 57.937C47.852 58.298 47.612 58.623 47.309 58.908C47.006 59.174 46.651 59.39 46.243 59.554C45.834 59.72 45.395 59.802 44.928 59.802C44.461 59.802 44.021 59.72 43.614 59.554C43.206 59.39 42.845 59.173 42.533 58.908C42.24 58.623 42.004 58.299 41.825 57.937C41.644 57.576 41.555 57.187 41.555 56.773C41.555 56.361 41.644 55.974 41.825 55.611C42.004 55.25 42.24 54.929 42.533 54.654C42.846 54.379 43.206 54.158 43.614 53.994C44.021 53.828 44.461 53.746 44.928 53.746C45.395 53.746 45.834 53.828 46.243 53.994C46.651 54.158 47.007 54.379 47.309 54.654C47.611 54.929 47.852 55.25 48.032 55.611C48.211 55.975 48.301 56.361 48.301 56.773ZM46.457 56.773C46.457 56.371 46.306 56.033 46.003 55.761C45.7 55.491 45.342 55.355 44.929 55.355C44.517 55.355 44.158 55.492 43.855 55.761C43.552 56.032 43.402 56.37 43.402 56.773C43.402 57.177 43.552 57.515 43.855 57.785C44.159 58.056 44.517 58.193 44.929 58.193C45.342 58.193 45.7 58.056 46.003 57.785C46.305 57.516 46.457 57.178 46.457 56.773Z" fill="white"/>
<path d="M56.642 51.088C56.607 51.227 56.56 51.359 56.505 51.488C56.321 51.873 56.079 52.205 55.776 52.478C55.463 52.773 55.098 53.003 54.68 53.173C54.262 53.343 53.821 53.429 53.352 53.429C52.883 53.429 52.442 53.343 52.024 53.173C51.606 53.003 51.241 52.773 50.928 52.478C50.625 52.205 50.385 51.873 50.205 51.488C50.028 51.101 49.939 50.695 49.939 50.261C49.939 49.831 50.028 49.421 50.205 49.038C50.385 48.651 50.625 48.321 50.928 48.047C51.241 47.752 51.606 47.52 52.024 47.352C52.442 47.182 52.883 47.096 53.352 47.096C53.821 47.096 54.262 47.182 54.68 47.352C55.098 47.52 55.463 47.752 55.776 48.047C56.079 48.321 56.321 48.651 56.505 49.038C56.569 49.183 56.62 49.331 56.657 49.477H58.28V46.863H60.126V53.51H58.28V51.086H56.642V51.088ZM54.921 50.262C54.921 49.832 54.767 49.465 54.454 49.162C54.141 48.859 53.774 48.707 53.352 48.707C52.93 48.707 52.563 48.859 52.25 49.162C51.937 49.465 51.781 49.832 51.781 50.262C51.781 50.696 51.937 51.061 52.25 51.366C52.563 51.669 52.93 51.819 53.352 51.819C53.774 51.819 54.141 51.669 54.454 51.366C54.767 51.061 54.921 50.695 54.921 50.262ZM60.126 59.184H52.183V53.924H54.013V54.93H58.294V53.924H60.126V59.184ZM58.294 56.43H54.013V57.616H58.294V56.43Z" fill="white"/>
<path d="M70.546 56.168H65.646V47.401H70.546V50.853H71.509V46.864H73.3V59.183H71.509V52.478H70.546V56.168ZM68.771 49.039H67.421V54.531H68.771V49.039ZM73.987 46.864H75.803V59.183H73.987V46.864Z" fill="white"/>
<path d="M83.019 47.401C83.019 49.611 82.505 51.492 81.476 53.043C80.56 54.439 79.287 55.66 77.663 56.705L76.409 55.426C77.915 54.498 79.067 53.43 79.866 52.217C80.536 51.217 80.917 50.162 81.009 49.051H77.14V47.402H83.019V47.401ZM88.071 50.869V52.549H86.307V59.184H84.463V46.864H86.307V50.869H88.071Z" fill="white"/>
<path d="M92.765 48.226C92.765 49.19 93.013 49.987 93.509 50.622C93.995 51.247 94.714 51.806 95.669 52.3L94.581 53.527C93.499 53.031 92.64 52.361 92.007 51.517C91.962 51.453 91.915 51.392 91.87 51.339C91.796 51.448 91.714 51.554 91.622 51.653C90.907 52.469 90.052 53.155 89.061 53.706L87.918 52.466C88.891 51.962 89.629 51.384 90.135 50.732C90.639 50.082 90.893 49.246 90.893 48.227V47.182H92.764V48.226H92.765ZM97.954 59.184H90.011V53.924H91.843V54.93H96.124V53.924H97.954V59.184ZM96.124 56.43H91.843V57.616H96.124V56.43ZM97.954 46.862V48.241H99.606V49.726H97.954V50.841H99.606V52.327H97.954V53.511H96.11V46.862H97.954V46.862Z" fill="white"/>
<path d="M23.738 64.492C23.943 64.672 24.075 64.914 24.132 65.217C24.139 65.262 24.129 65.303 24.104 65.342C24.082 65.373 24.05 65.393 24.009 65.403C23.971 65.413 23.936 65.407 23.905 65.383C23.867 65.358 23.843 65.317 23.834 65.26C23.78 64.985 23.653 64.778 23.454 64.639C23.274 64.512 23.047 64.45 22.771 64.45C22.41 64.45 22.118 64.581 21.893 64.843C21.659 65.126 21.541 65.515 21.541 66.011C21.541 66.521 21.658 66.913 21.893 67.189C22.111 67.445 22.404 67.572 22.771 67.572C23.049 67.572 23.275 67.508 23.45 67.379C23.645 67.231 23.778 66.994 23.848 66.672C23.857 66.621 23.881 66.584 23.919 66.563C23.953 66.543 23.991 66.54 24.032 66.549C24.076 66.557 24.109 66.58 24.132 66.615C24.157 66.652 24.164 66.699 24.152 66.756C24.076 67.072 23.936 67.322 23.734 67.506C23.494 67.729 23.172 67.838 22.771 67.838C22.315 67.838 21.95 67.676 21.674 67.35C21.39 67.022 21.247 66.575 21.247 66.012C21.247 65.461 21.39 65.02 21.674 64.684C21.952 64.352 22.318 64.186 22.771 64.186C23.174 64.184 23.498 64.285 23.738 64.492Z" fill="white"/>
<path d="M24.768 64.221C24.796 64.196 24.831 64.184 24.872 64.184C24.91 64.184 24.943 64.196 24.972 64.221C25.003 64.25 25.02 64.289 25.02 64.34V67.281C25.02 67.338 25.036 67.386 25.067 67.424C25.105 67.469 25.159 67.49 25.228 67.49H26.69C26.738 67.49 26.775 67.504 26.804 67.527C26.828 67.552 26.841 67.586 26.841 67.623C26.841 67.658 26.828 67.687 26.804 67.713C26.775 67.742 26.738 67.756 26.69 67.756H25.176C25.03 67.756 24.916 67.709 24.834 67.613C24.762 67.527 24.725 67.424 24.725 67.3V64.34C24.725 64.289 24.74 64.25 24.768 64.221Z" fill="white"/>
<path d="M29.49 64.301C29.515 64.326 29.528 64.36 29.528 64.397C29.528 64.432 29.515 64.461 29.49 64.487C29.462 64.516 29.426 64.53 29.381 64.53H27.701C27.632 64.53 27.578 64.551 27.54 64.596C27.509 64.635 27.493 64.684 27.493 64.742V65.814H29.215C29.263 65.814 29.301 65.828 29.329 65.853C29.354 65.878 29.367 65.91 29.367 65.947C29.367 65.982 29.354 66.013 29.329 66.039C29.301 66.066 29.263 66.08 29.215 66.08H27.493V67.281C27.493 67.338 27.509 67.386 27.54 67.424C27.578 67.469 27.632 67.49 27.701 67.49H29.443C29.49 67.49 29.528 67.504 29.556 67.527C29.581 67.552 29.594 67.586 29.594 67.623C29.594 67.658 29.581 67.687 29.556 67.713C29.528 67.742 29.49 67.756 29.443 67.756H27.649C27.503 67.756 27.389 67.709 27.307 67.613C27.235 67.527 27.198 67.424 27.198 67.3V64.724C27.198 64.597 27.235 64.492 27.307 64.406C27.389 64.31 27.503 64.263 27.649 64.263H29.38C29.425 64.264 29.461 64.277 29.49 64.301Z" fill="white"/>
<path d="M31.034 64.24C31.082 64.205 31.136 64.187 31.195 64.187C31.249 64.187 31.299 64.205 31.347 64.24C31.397 64.277 31.435 64.334 31.46 64.406L32.637 67.623C32.653 67.67 32.652 67.715 32.632 67.756C32.616 67.791 32.59 67.815 32.552 67.826C32.514 67.84 32.476 67.838 32.438 67.822C32.4 67.801 32.372 67.765 32.353 67.718L31.955 66.613H30.432L30.029 67.718C30.01 67.765 29.98 67.8 29.939 67.822C29.904 67.842 29.868 67.843 29.83 67.832C29.792 67.818 29.764 67.793 29.744 67.756C29.725 67.719 29.727 67.674 29.749 67.623L30.921 64.406C30.945 64.334 30.983 64.277 31.034 64.24ZM31.855 66.352L31.2 64.549H31.186L30.526 66.352H31.855Z" fill="white"/>
<path d="M33.193 64.184C33.288 64.17 33.361 64.204 33.412 64.284L33.573 64.52L35.238 67.291V64.311C35.238 64.27 35.253 64.237 35.281 64.211C35.309 64.193 35.344 64.184 35.385 64.184C35.426 64.184 35.461 64.194 35.489 64.217C35.52 64.238 35.536 64.27 35.536 64.311V67.633C35.536 67.74 35.494 67.805 35.408 67.826C35.323 67.851 35.262 67.832 35.223 67.765L34.957 67.376L33.349 64.724V67.669C33.349 67.724 33.332 67.767 33.301 67.798C33.273 67.825 33.238 67.841 33.197 67.841C33.156 67.837 33.121 67.821 33.093 67.792C33.065 67.761 33.05 67.72 33.05 67.669V64.372C33.05 64.262 33.098 64.199 33.193 64.184Z" fill="white"/>
<path d="M36.382 64.221C36.411 64.196 36.445 64.184 36.486 64.184C36.524 64.184 36.557 64.196 36.586 64.221C36.618 64.25 36.634 64.289 36.634 64.34V67.686C36.634 67.733 36.618 67.77 36.586 67.799C36.558 67.824 36.524 67.836 36.486 67.836C36.445 67.836 36.411 67.824 36.382 67.799C36.354 67.77 36.34 67.733 36.34 67.686V64.34C36.34 64.289 36.354 64.25 36.382 64.221Z" fill="white"/>
<path d="M37.57 64.184C37.665 64.17 37.738 64.204 37.789 64.284L37.95 64.52L39.615 67.291V64.311C39.615 64.27 39.63 64.237 39.658 64.211C39.686 64.193 39.721 64.184 39.762 64.184C39.803 64.184 39.838 64.194 39.866 64.217C39.897 64.238 39.913 64.27 39.913 64.311V67.633C39.913 67.74 39.871 67.805 39.785 67.826C39.7 67.851 39.639 67.832 39.6 67.765L39.334 67.376L37.726 64.724V67.669C37.726 67.724 37.709 67.767 37.678 67.798C37.65 67.825 37.615 67.841 37.574 67.841C37.533 67.837 37.498 67.821 37.47 67.792C37.442 67.761 37.427 67.72 37.427 67.669V64.372C37.427 64.262 37.475 64.199 37.57 64.184Z" fill="white"/>
<path d="M43.126 64.486C43.331 64.65 43.466 64.869 43.529 65.14C43.539 65.191 43.531 65.234 43.506 65.269C43.481 65.3 43.445 65.32 43.402 65.326C43.361 65.332 43.323 65.324 43.288 65.303C43.247 65.282 43.224 65.246 43.217 65.199C43.166 64.951 43.043 64.763 42.847 64.635C42.655 64.51 42.405 64.449 42.098 64.449C41.699 64.449 41.386 64.58 41.159 64.842C40.922 65.117 40.803 65.508 40.803 66.01C40.803 66.526 40.922 66.918 41.159 67.188C41.384 67.444 41.696 67.571 42.098 67.571C42.439 67.571 42.714 67.473 42.923 67.278C43.17 67.044 43.293 66.686 43.293 66.206H42.235C42.146 66.206 42.101 66.161 42.101 66.073C42.101 65.983 42.146 65.94 42.235 65.94H43.374C43.44 65.94 43.492 65.961 43.53 66.006C43.568 66.047 43.587 66.098 43.587 66.156V67.627C43.587 67.676 43.571 67.713 43.54 67.742C43.512 67.767 43.478 67.779 43.44 67.779C43.398 67.779 43.364 67.767 43.336 67.742C43.308 67.713 43.293 67.676 43.293 67.627V67.172C43.189 67.387 43.037 67.551 42.838 67.66C42.632 67.777 42.385 67.836 42.098 67.836C41.608 67.836 41.22 67.674 40.935 67.348C40.647 67.022 40.503 66.577 40.503 66.01C40.503 65.457 40.647 65.014 40.935 64.682C41.226 64.35 41.614 64.184 42.098 64.184C42.527 64.184 42.871 64.285 43.126 64.486Z" fill="white"/>
<path d="M45.728 64.227C45.756 64.202 45.791 64.188 45.832 64.188C45.87 64.188 45.903 64.2 45.932 64.221C45.963 64.25 45.98 64.289 45.98 64.34V66.547C45.98 66.828 46.055 67.063 46.208 67.248C46.385 67.463 46.637 67.57 46.962 67.57C47.288 67.57 47.538 67.463 47.712 67.248C47.864 67.064 47.94 66.83 47.94 66.547V64.311C47.94 64.27 47.955 64.237 47.983 64.211C48.011 64.193 48.046 64.184 48.087 64.184C48.125 64.184 48.158 64.196 48.187 64.221C48.218 64.244 48.235 64.278 48.235 64.321V66.542C48.235 66.897 48.133 67.192 47.931 67.429C47.702 67.702 47.38 67.837 46.962 67.837C46.542 67.837 46.218 67.702 45.989 67.429C45.787 67.193 45.685 66.898 45.685 66.542V64.34C45.685 64.293 45.7 64.254 45.728 64.227Z" fill="white"/>
<path d="M51.101 64.568C51.265 64.75 51.347 64.976 51.347 65.246C51.347 65.508 51.265 65.732 51.101 65.914C50.921 66.121 50.677 66.223 50.371 66.223H49.27V67.686C49.27 67.733 49.253 67.77 49.222 67.799C49.194 67.824 49.16 67.836 49.122 67.836C49.081 67.836 49.046 67.824 49.018 67.799C48.99 67.77 48.975 67.733 48.975 67.686V64.725C48.975 64.598 49.012 64.493 49.084 64.407C49.166 64.311 49.28 64.264 49.426 64.264H50.371C50.677 64.264 50.921 64.365 51.101 64.568ZM50.868 65.74C50.987 65.603 51.048 65.441 51.048 65.25C51.048 65.055 50.987 64.889 50.868 64.752C50.735 64.604 50.555 64.529 50.331 64.529H49.477C49.408 64.529 49.354 64.55 49.316 64.595C49.285 64.634 49.269 64.683 49.269 64.741V65.962H50.331C50.556 65.963 50.735 65.889 50.868 65.74Z" fill="white"/>
<path d="M53.419 64.25C53.456 64.211 53.505 64.189 53.565 64.184C53.626 64.18 53.678 64.194 53.725 64.221C53.776 64.252 53.811 64.295 53.83 64.35L53.934 64.653L54.873 67.401L55.822 64.643L55.918 64.364C55.938 64.303 55.971 64.257 56.022 64.221C56.073 64.194 56.127 64.182 56.184 64.188C56.241 64.192 56.288 64.211 56.327 64.251C56.37 64.292 56.393 64.347 56.393 64.417V67.687C56.393 67.734 56.377 67.771 56.344 67.8C56.317 67.825 56.281 67.837 56.24 67.837C56.199 67.837 56.164 67.825 56.136 67.8C56.107 67.771 56.093 67.734 56.093 67.687V64.673L55.081 67.661C55.03 67.778 54.96 67.837 54.868 67.837C54.78 67.837 54.71 67.778 54.659 67.661L53.649 64.673V67.687C53.649 67.734 53.631 67.771 53.6 67.8C53.573 67.825 53.539 67.837 53.5 67.837C53.459 67.837 53.424 67.825 53.396 67.8C53.367 67.771 53.353 67.734 53.353 67.687V64.417C53.356 64.346 53.376 64.291 53.419 64.25Z" fill="white"/>
<path d="M59.431 64.301C59.456 64.326 59.468 64.36 59.468 64.397C59.468 64.432 59.456 64.461 59.431 64.487C59.402 64.516 59.367 64.53 59.322 64.53H57.642C57.572 64.53 57.519 64.551 57.48 64.596C57.449 64.635 57.433 64.684 57.433 64.742V65.814H59.156C59.203 65.814 59.242 65.828 59.269 65.853C59.294 65.878 59.308 65.91 59.308 65.947C59.308 65.982 59.294 66.013 59.269 66.039C59.242 66.066 59.203 66.08 59.156 66.08H57.433V67.281C57.433 67.338 57.449 67.386 57.48 67.424C57.519 67.469 57.572 67.49 57.642 67.49H59.384C59.431 67.49 59.468 67.504 59.497 67.527C59.522 67.552 59.534 67.586 59.534 67.623C59.534 67.658 59.522 67.687 59.497 67.713C59.468 67.742 59.431 67.756 59.384 67.756H57.589C57.444 67.756 57.329 67.709 57.247 67.613C57.175 67.527 57.138 67.424 57.138 67.3V64.724C57.138 64.597 57.175 64.492 57.247 64.406C57.329 64.31 57.444 64.263 57.589 64.263H59.321C59.366 64.264 59.401 64.277 59.431 64.301Z" fill="white"/>
<path d="M62.458 64.486C62.663 64.65 62.798 64.869 62.86 65.14C62.87 65.191 62.862 65.234 62.837 65.269C62.812 65.3 62.776 65.32 62.733 65.326C62.692 65.332 62.653 65.324 62.618 65.303C62.577 65.282 62.554 65.246 62.548 65.199C62.497 64.951 62.374 64.763 62.177 64.635C61.986 64.51 61.736 64.449 61.429 64.449C61.029 64.449 60.716 64.58 60.49 64.842C60.252 65.117 60.133 65.508 60.133 66.01C60.133 66.526 60.252 66.918 60.49 67.188C60.715 67.444 61.027 67.571 61.429 67.571C61.769 67.571 62.044 67.473 62.253 67.278C62.501 67.044 62.624 66.686 62.624 66.206H61.565C61.477 66.206 61.432 66.161 61.432 66.073C61.432 65.983 61.477 65.94 61.565 65.94H62.704C62.77 65.94 62.823 65.961 62.86 66.006C62.899 66.047 62.917 66.098 62.917 66.156V67.627C62.917 67.676 62.901 67.713 62.87 67.742C62.843 67.767 62.809 67.779 62.77 67.779C62.729 67.779 62.694 67.767 62.666 67.742C62.637 67.713 62.623 67.676 62.623 67.627V67.172C62.518 67.387 62.367 67.551 62.168 67.66C61.961 67.777 61.715 67.836 61.428 67.836C60.938 67.836 60.549 67.674 60.264 67.348C59.977 67.022 59.832 66.577 59.832 66.01C59.832 65.457 59.977 65.014 60.264 64.682C60.555 64.35 60.944 64.184 61.428 64.184C61.858 64.184 62.202 64.285 62.458 64.486Z" fill="white"/>
<path d="M64.548 64.24C64.595 64.205 64.65 64.187 64.708 64.187C64.763 64.187 64.813 64.205 64.86 64.24C64.911 64.277 64.948 64.334 64.973 64.406L66.151 67.623C66.167 67.67 66.165 67.715 66.145 67.756C66.129 67.791 66.104 67.815 66.065 67.826C66.028 67.84 65.989 67.838 65.952 67.822C65.913 67.801 65.886 67.765 65.866 67.718L65.468 66.613H63.945L63.543 67.718C63.523 67.765 63.494 67.8 63.453 67.822C63.418 67.842 63.381 67.843 63.344 67.832C63.305 67.818 63.278 67.793 63.258 67.756C63.238 67.719 63.24 67.674 63.262 67.623L64.434 64.406C64.458 64.334 64.497 64.277 64.548 64.24ZM65.368 66.352L64.714 64.549H64.7L64.04 66.352H65.368Z" fill="white"/>
<path d="M68.511 64.469C68.656 64.61 68.747 64.799 68.786 65.033C68.794 65.092 68.786 65.14 68.757 65.179C68.736 65.214 68.702 65.234 68.657 65.24C68.616 65.244 68.579 65.232 68.544 65.207C68.509 65.184 68.487 65.144 68.481 65.094C68.444 64.869 68.356 64.705 68.221 64.602C68.084 64.5 67.893 64.45 67.647 64.45C67.381 64.45 67.172 64.499 67.02 64.596C66.858 64.701 66.778 64.85 66.778 65.047C66.778 65.242 66.841 65.395 66.967 65.502C67.1 65.615 67.338 65.707 67.684 65.777C68.137 65.869 68.455 66 68.643 66.172C68.823 66.336 68.913 66.57 68.913 66.873C68.913 67.17 68.79 67.408 68.544 67.586C68.315 67.752 68.03 67.836 67.685 67.836C67.296 67.836 66.997 67.754 66.789 67.59C66.56 67.416 66.432 67.147 66.4 66.779C66.392 66.728 66.406 66.687 66.437 66.654C66.462 66.631 66.494 66.615 66.533 66.613C66.574 66.609 66.609 66.621 66.637 66.646C66.668 66.673 66.688 66.714 66.694 66.769C66.717 67.054 66.815 67.261 66.989 67.39C67.143 67.511 67.374 67.57 67.677 67.57C67.906 67.57 68.109 67.519 68.29 67.414C68.507 67.291 68.616 67.121 68.616 66.906C68.616 66.672 68.559 66.5 68.446 66.388C68.309 66.255 68.04 66.144 67.633 66.052C67.244 65.96 66.963 65.849 66.789 65.72C66.584 65.562 66.48 65.341 66.48 65.056C66.48 64.781 66.584 64.566 66.793 64.41C67.006 64.26 67.297 64.183 67.666 64.183C68.032 64.184 68.313 64.277 68.511 64.469Z" fill="white"/>
<path d="M69.521 64.221C69.55 64.196 69.585 64.184 69.626 64.184C69.663 64.184 69.696 64.196 69.726 64.221C69.757 64.25 69.773 64.289 69.773 64.34V65.748H71.824V64.34C71.824 64.289 71.838 64.25 71.865 64.221C71.894 64.196 71.929 64.184 71.97 64.184C72.007 64.184 72.04 64.196 72.07 64.221C72.101 64.25 72.117 64.289 72.117 64.34V67.686C72.117 67.733 72.101 67.77 72.07 67.799C72.041 67.824 72.007 67.836 71.97 67.836C71.929 67.836 71.894 67.824 71.865 67.799C71.838 67.77 71.824 67.733 71.824 67.686V66.014H69.773V67.686C69.773 67.733 69.757 67.77 69.726 67.799C69.697 67.824 69.663 67.836 69.626 67.836C69.585 67.836 69.55 67.824 69.521 67.799C69.494 67.77 69.478 67.733 69.478 67.686V64.34C69.478 64.289 69.493 64.25 69.521 64.221Z" fill="white"/>
<path d="M75.472 64.742C75.726 65.074 75.853 65.498 75.853 66.01C75.853 66.522 75.726 66.944 75.472 67.272C75.189 67.649 74.786 67.836 74.267 67.836C73.746 67.836 73.343 67.648 73.058 67.272C72.812 66.944 72.687 66.522 72.687 66.01C72.687 65.498 72.812 65.074 73.058 64.742C73.343 64.369 73.746 64.183 74.267 64.183C74.786 64.184 75.188 64.369 75.472 64.742ZM73.28 64.914C73.081 65.189 72.981 65.555 72.981 66.01C72.981 66.463 73.081 66.828 73.28 67.106C73.505 67.42 73.835 67.577 74.266 67.577C74.697 67.577 75.026 67.421 75.254 67.106C75.455 66.825 75.557 66.46 75.557 66.01C75.557 65.557 75.455 65.192 75.254 64.914C75.025 64.601 74.697 64.443 74.266 64.443C73.835 64.443 73.505 64.602 73.28 64.914Z" fill="white"/>
<path d="M78.542 64.568C78.708 64.75 78.79 64.976 78.79 65.246C78.79 65.508 78.708 65.732 78.542 65.914C78.362 66.121 78.118 66.223 77.812 66.223H76.712V67.686C76.712 67.733 76.694 67.77 76.663 67.799C76.636 67.824 76.602 67.836 76.563 67.836C76.522 67.836 76.487 67.824 76.459 67.799C76.43 67.77 76.416 67.733 76.416 67.686V64.725C76.416 64.598 76.453 64.493 76.525 64.407C76.607 64.311 76.72 64.264 76.867 64.264H77.81C78.118 64.264 78.362 64.365 78.542 64.568ZM78.31 65.74C78.431 65.603 78.492 65.441 78.492 65.25C78.492 65.055 78.431 64.889 78.31 64.752C78.177 64.604 77.999 64.529 77.775 64.529H76.92C76.852 64.529 76.797 64.55 76.76 64.595C76.729 64.634 76.713 64.683 76.713 64.741V65.962H77.776C77.999 65.963 78.177 65.889 78.31 65.74Z" fill="white"/>
</svg>
