<svg width="145" height="37" viewBox="0 0 145 37" fill="none" xmlns="http://www.w3.org/2000/svg">
<g clip-path="url(#clip0_241_13047)">
<path d="M56.792 9.91834H53.8215C53.6604 8.88118 53.0763 8.23674 52.0996 8.23674C51.0322 8.23674 50.2569 9.01209 50.2569 11.4489C50.2569 13.926 51.0221 14.8625 52.0996 14.8625C53.0763 14.8625 53.6604 13.9864 53.8215 12.9593H56.792C56.5 15.2652 55.5836 17.259 52.2103 17.259C49.1593 17.259 47.1555 14.792 47.1555 11.4086C47.1555 8.03535 49.1291 5.85026 52.2103 5.85026C54.7177 5.8402 56.5503 7.51173 56.792 9.91834Z" fill="#005BAC"/>
<path d="M60.7593 5.99121V14.6409H64.9785V17.0979H57.9097V5.99121H60.7593Z" fill="#005BAC"/>
<path d="M65.8545 5.99121H73.6584L73.6483 8.46831H68.7243V10.311H72.8427V12.7176H68.7042V14.6107H73.6785V17.0979H65.8545V5.99121Z" fill="#005BAC"/>
<path d="M77.9077 5.99121H80.8178L84.5536 17.0979H81.7543L81.0494 14.943H77.7164L77.0015 17.0979H74.1719L77.9077 5.99121ZM80.405 12.3954L79.3678 8.85095L78.3105 12.3954H80.405Z" fill="#005BAC"/>
<path d="M95.0762 5.99121V17.0979H92.5085L88.0981 10.4721V17.0979H85.2484V5.99121H88.1182L92.2366 12.184V5.99121H95.0762Z" fill="#005BAC"/>
<path d="M99.396 5.99121V17.0979H96.5464V5.99121H99.396Z" fill="#005BAC"/>
<path d="M110.704 5.99121V17.0979H108.136L103.726 10.4721V17.0979H100.876V5.99121H103.746L107.865 12.184V5.99121H110.704Z" fill="#005BAC"/>
<path d="M111.832 11.5899C111.832 8.13606 113.967 5.84021 116.998 5.84021C119.837 5.84021 121.579 7.83397 121.619 9.91836H118.649C118.458 9.0121 117.914 8.31731 116.927 8.31731C115.88 8.31731 114.933 9.10273 114.933 11.4892C114.933 14.208 116.142 14.651 117.048 14.651C117.843 14.651 118.427 14.1173 118.578 13.6038L118.709 13.2111H116.867V11.1972L121.7 11.2274V17.0979H119.827V15.8694C119.303 16.4434 118.558 17.249 116.816 17.249C113.816 17.249 111.832 14.933 111.832 11.5899Z" fill="#005BAC"/>
<path d="M130.038 17.2489C126.634 17.2489 125.486 15.3256 125.486 12.5062V5.99121H128.366V12.627C128.366 14.1676 129.151 14.7517 130.038 14.7517C130.914 14.7517 131.719 14.1676 131.719 12.627V5.99121H134.589V12.5062C134.599 15.3357 133.441 17.2489 130.038 17.2489Z" fill="#005BAC"/>
<path d="M135.878 5.99121H140.057C142.393 5.99121 144.195 7.35059 144.195 9.75721C144.195 11.9524 142.745 13.2715 140.419 13.2715H138.717V17.0979H135.868V5.99121H135.878ZM140.329 11.0461C141.043 11.0461 141.587 10.3211 141.587 9.60616C141.587 8.83081 140.963 8.2065 140.329 8.2065H138.687V11.0461H140.329Z" fill="#005BAC"/>
<path d="M48.4242 21.035H52.6433L54.3551 27.8118L56.077 21.035H60.2861V32.1417H57.4364V24.0962L55.3822 32.1417H53.3381L51.2739 24.0962V32.1417H48.4242V21.035Z" fill="#005BAC"/>
<path d="M61.7562 21.035H69.5601L69.55 23.5121H64.626V25.3549H68.7445V27.7615H64.6059V29.6545H69.5802V32.1417H61.7663V21.035H61.7562Z" fill="#005BAC"/>
<path d="M70.2952 26.6337C70.2952 23.1799 72.4299 20.884 75.4608 20.884C78.3004 20.884 80.0424 22.8778 80.0827 24.9622H77.1122C76.9209 24.0559 76.3771 23.3611 75.3903 23.3611C74.3431 23.3611 73.3966 24.1466 73.3966 26.533C73.3966 29.2518 74.6049 29.6949 75.5112 29.6949C76.3067 29.6949 76.8907 29.1612 77.0417 28.6476L77.1726 28.2549H75.3299V26.241L80.1633 26.2712V32.1417H78.2903V30.9133C77.7667 31.4872 77.0216 32.2928 75.2796 32.2928C72.2789 32.2928 70.2952 29.9768 70.2952 26.6337Z" fill="#005BAC"/>
<path d="M84.7047 21.035H87.6147L91.3505 32.1417H88.5512L87.8463 29.9868H84.5133L83.7984 32.1417H80.9689L84.7047 21.035ZM87.2019 27.4392L86.1647 23.8948L85.1074 27.4392H87.2019Z" fill="#005BAC"/>
<path d="M91.8338 28.7584H94.7842C94.9453 29.5439 95.5998 30.0071 96.5967 30.0071C97.4828 30.0071 98.3387 29.7855 98.3387 28.99C98.3387 28.3154 97.4627 28.1643 96.5665 28.0032L94.9151 27.7112C93.2637 27.4293 92.1661 26.3317 92.1359 24.4386C92.1057 22.1931 94.1297 20.8942 96.5665 20.8942C99.1443 20.8942 100.977 22.5657 101.168 24.3984H98.2984C98.2078 23.5324 97.6238 23.2001 96.6269 23.2001C95.5193 23.2001 95.1769 23.6834 95.1769 24.0761C95.1769 24.5796 95.4085 24.8716 96.3349 25.0428L97.9863 25.3348C101.047 25.8786 101.239 27.8824 101.239 28.99C101.239 30.8831 99.2551 32.2928 96.6068 32.2928C94.3915 32.2928 92.0251 31.2355 91.8338 28.7584Z" fill="#005BAC"/>
<path d="M105.146 27.691V32.1518H102.296V21.035H105.146V25.2441H108.348V21.035H111.197V32.1417H108.348V27.691H105.146Z" fill="#005BAC"/>
<path d="M112.315 26.6136C112.315 23.1396 114.359 20.884 117.441 20.884C120.502 20.884 122.536 23.1396 122.536 26.6136C122.536 30.0473 120.542 32.2928 117.441 32.2928C114.299 32.2928 112.315 30.0775 112.315 26.6136ZM119.454 26.6639C119.454 24.1868 118.609 23.2806 117.441 23.2806C116.272 23.2806 115.417 24.1868 115.417 26.6639C115.417 29.0605 116.272 29.9063 117.441 29.9063C118.609 29.9063 119.454 29.0504 119.454 26.6639Z" fill="#005BAC"/>
<path d="M123.654 21.035H127.832C130.168 21.035 131.971 22.3944 131.971 24.801C131.971 26.9962 130.521 28.3153 128.195 28.3153H126.493V32.1417H123.643V21.035H123.654ZM128.114 26.0899C128.829 26.0899 129.373 25.3649 129.373 24.65C129.373 23.8746 128.749 23.2503 128.114 23.2503H126.473V26.0899H128.114Z" fill="#005BAC"/>
<path d="M10.4522 10.3111C11.7008 9.09271 13.2616 8.16632 15.0539 7.69305C16.0105 7.44132 16.9772 7.33055 17.9237 7.34062C18.981 6.46457 20.7936 5.32672 23.3109 5.04477C25.345 4.81318 27.9328 5.28644 29.6044 6.30346C31.4874 7.45138 32.8971 8.79063 33.9343 10.2507C30.3697 2.70865 21.8307 -1.54068 13.4932 0.503428C9.29418 1.53052 5.83027 3.95727 3.4438 7.1493C2.70873 8.15625 2.11463 9.21355 1.6615 10.3111H10.4522Z" fill="#8FC31F"/>
<path d="M3.48406 16.0809H0.563904C0.604182 19.0716 1.58092 22.0421 3.48406 24.5192V16.0809Z" fill="#8FC31F"/>
<path d="M10.4521 25.4657H4.26947C6.19275 27.5602 8.8813 29.1612 12.5869 28.9497C13.7952 28.8793 14.8424 28.557 15.7386 28.2247C13.7449 27.832 11.9022 26.8654 10.4521 25.4657Z" fill="#8FC31F"/>
<path d="M19.0817 8.78062C20.431 8.46846 22.9182 8.27714 24.9824 10.3213H30.6616C31.6484 10.3213 32.5748 10.5931 33.4408 11.1167C32.4036 9.72715 30.9536 8.45839 28.9599 7.39103C27.3185 6.51498 25.5262 6.02157 23.5928 6.19276C21.0452 6.41428 19.5449 7.47158 18.7796 8.24693C18.548 8.46846 18.7695 8.8511 19.0817 8.78062Z" fill="#005BAC"/>
<path d="M34.5283 20.2195C33.4307 21.297 32.1016 21.8609 30.6717 21.8609H29.6547V25.4657H25.3953C25.1234 26.2109 24.8616 26.7748 24.63 27.0567C22.7269 29.4734 21.9918 27.2883 21.7803 26.6439C21.7703 26.6237 21.7703 26.6036 21.7602 26.5935C21.4883 25.798 20.3706 25.7578 20.0584 26.5432C19.4442 28.0939 17.6619 30.0172 12.748 30.6314C3.85662 31.739 0.785421 22.2234 0 20.4411C0.21146 22.2133 0.694796 23.9855 1.47015 25.7376C4.73267 33.0279 12.5768 37.2571 20.4713 36.0085C25.3953 35.2332 29.5238 32.6453 32.1318 28.98C32.5346 28.406 32.8769 27.8522 33.1689 27.2984C34.2766 25.214 35.495 22.032 35.6259 18.689C35.354 19.2529 34.9915 19.7664 34.5283 20.2195Z" fill="#005BAC"/>
<path d="M11.4893 11.6201H1.29895V14.7819H4.783V24.1566H8.05558V14.7819H11.4893V11.6201Z" fill="#005BAC"/>
<path d="M17.6417 11.4288C15.8393 11.4288 14.2886 12.0834 13.0299 13.3622C11.7712 14.641 11.1368 16.232 11.1368 18.0747C11.1368 19.9275 11.7712 21.5185 13.0299 22.7973C14.2886 24.0761 15.8393 24.7206 17.6417 24.7206C19.4542 24.7206 21.005 24.0761 22.2636 22.7973C23.5223 21.5185 24.1567 19.9376 24.1567 18.0747C24.1567 16.232 23.5223 14.6511 22.2636 13.3622C20.9949 12.0733 19.4442 11.4288 17.6417 11.4288ZM15.3459 15.5976C15.9702 14.9229 16.7254 14.5907 17.6417 14.5907C18.5581 14.5907 19.3133 14.923 19.9376 15.6077C20.572 16.3025 20.8841 17.108 20.8841 18.0747C20.8841 19.0514 20.572 19.8671 19.9275 20.5518C19.2931 21.2265 18.548 21.5588 17.6417 21.5588C16.7254 21.5588 15.9702 21.2365 15.3459 20.5719C14.7115 19.8973 14.3994 19.0817 14.3994 18.0848C14.3994 17.0879 14.7115 16.2823 15.3459 15.5976Z" fill="#005BAC"/>
<path d="M33.5818 12.8385C32.7057 12.033 31.729 11.6201 30.6616 11.6201H25.0731V24.1667H28.3456V20.5618H30.6616C31.7592 20.5618 32.746 20.1389 33.612 19.2931C34.478 18.4472 34.911 17.3698 34.911 16.091C34.911 14.7417 34.4679 13.6542 33.5818 12.8385ZM28.3557 14.7819H30.5207C30.7925 14.7819 31.0443 14.8826 31.296 15.0941C31.5276 15.2854 31.6384 15.6177 31.6384 16.091C31.6384 16.5642 31.5175 16.9066 31.296 17.0879C31.0443 17.2993 30.7825 17.4 30.5207 17.4H28.3557V14.7819Z" fill="#005BAC"/>
</g>
<defs>
<clipPath id="clip0_241_13047">
<rect width="144.195" height="36.22" fill="white"/>
</clipPath>
</defs>
</svg>
