<svg width="142" height="36" viewBox="0 0 142 36" fill="none" xmlns="http://www.w3.org/2000/svg">
<g clip-path="url(#clip0_230_10203)">
<path d="M56.4192 9H53.513C53.3126 8 52.8115 7.4 51.8094 7.4C50.8073 7.4 50.0056 8.2 50.0056 10.5C50.0056 12.9 50.8073 13.8 51.8094 13.8C52.8115 13.8 53.3126 12.9 53.513 11.9H56.4192C56.1185 14.2 55.2166 16.1 51.9096 16.1C48.9033 16.1 46.9993 13.7 46.9993 10.4C46.9993 7.1 48.9033 5 51.9096 5C54.3147 5.1 56.1185 6.7 56.4192 9Z" fill="#9FA0A0"/>
<path d="M60.2272 5.20044V13.7004H64.3359V16.1004H57.4213V5.20044H60.2272Z" fill="#9FA0A0"/>
<path d="M65.2378 5.20044H72.8539V7.60044H68.0437V9.40044H72.0522V11.8004H68.0437V13.6004H72.9541V16.0004H65.338V5.20044H65.2378Z" fill="#9FA0A0"/>
<path d="M77.0628 5.20044H79.8687L83.5766 16.1004H80.8709L80.1694 14.0004H76.8624L76.1609 16.1004H73.355L77.0628 5.20044ZM79.4679 11.5004L78.4658 8.00044L77.4637 11.5004H79.4679Z" fill="#9FA0A0"/>
<path d="M93.8983 5.20044V16.1004H91.393L87.0839 9.60044V16.1004H84.278V5.20044H87.0839L91.0924 11.3004V5.20044H93.8983Z" fill="#9FA0A0"/>
<path d="M98.1073 5.20044V16.1004H95.3013V5.20044H98.1073Z" fill="#9FA0A0"/>
<path d="M109.231 5.20044V16.1004H106.725L102.416 9.60044V16.1004H99.6104V5.20044H102.416L106.425 11.3004V5.20044H109.231Z" fill="#9FA0A0"/>
<path d="M110.333 10.7002C110.333 7.30022 112.438 5.10022 115.444 5.10022C118.25 5.10022 119.953 7.10022 119.953 9.10022H117.047C116.847 8.20022 116.346 7.50022 115.344 7.50022C114.342 7.50022 113.339 8.30022 113.339 10.6002C113.339 13.3002 114.542 13.7002 115.444 13.7002C116.246 13.7002 116.847 13.2002 116.947 12.7002L117.047 12.3002H115.243V10.3002H119.953V16.0002H118.15V14.8002C117.649 15.4002 116.947 16.2002 115.243 16.2002C112.237 16.2002 110.333 13.9002 110.333 10.7002Z" fill="#9FA0A0"/>
<path d="M128.171 16.2004C124.864 16.2004 123.661 14.3004 123.661 11.6004V5.20044H126.467V11.7004C126.467 13.2004 127.269 13.8004 128.071 13.8004C128.972 13.8004 129.674 13.2004 129.674 11.7004V5.20044H132.48V11.6004C132.58 14.3004 131.478 16.2004 128.171 16.2004Z" fill="#9FA0A0"/>
<path d="M133.883 5.20044H137.991C140.296 5.20044 142.1 6.50044 142.1 8.90044C142.1 11.0004 140.697 12.3004 138.392 12.3004H136.689V16.0004H133.883V5.20044ZM138.292 10.1004C138.994 10.1004 139.495 9.40044 139.495 8.70044C139.495 7.90044 138.893 7.30044 138.292 7.30044H136.689V10.1004H138.292Z" fill="#9FA0A0"/>
<path d="M48.2018 19.9H52.3105L54.0141 26.5L55.7177 19.9H59.8263V30.8H57.0204V22.9L55.0162 30.8H53.0119L51.0077 22.9V30.8H48.2018V19.9Z" fill="#9FA0A0"/>
<path d="M61.2293 19.9H68.8454V22.3H64.0352V24.1H68.0437V26.5H64.0352V28.3H68.9456V30.7H61.3295V19.9H61.2293Z" fill="#9FA0A0"/>
<path d="M69.6471 25.4C69.6471 22 71.7515 19.8 74.7579 19.8C77.5638 19.8 79.2674 21.8 79.2674 23.8H76.3613C76.1608 22.9 75.6598 22.2 74.6577 22.2C73.6556 22.2 72.6534 23 72.6534 25.3C72.6534 28 73.856 28.4 74.7579 28.4C75.5596 28.4 76.1608 27.9 76.2611 27.4L76.3613 27H74.5575V25H79.2674V30.7H77.4636V29.5C76.9625 30.1 76.2611 30.9 74.5575 30.9C71.5511 30.9 69.6471 28.7 69.6471 25.4Z" fill="#9FA0A0"/>
<path d="M83.777 19.9H86.5829L90.1905 30.8H87.4848L86.7833 28.7H83.4763L82.7749 30.8H79.9689L83.777 19.9ZM86.1821 26.2L85.1799 22.7L84.1778 26.2H86.1821Z" fill="#9FA0A0"/>
<path d="M90.6916 27.4999H93.5977C93.7982 28.2999 94.3994 28.6999 95.4015 28.6999C96.3034 28.6999 97.1051 28.4999 97.1051 27.6999C97.1051 26.9999 96.2032 26.9 95.4015 26.6999L93.7981 26.3999C92.1948 26.0999 91.0924 25 91.0924 23.2C91.0924 21 92.9965 19.7 95.4015 19.7C97.9068 19.7 99.7106 21.3 99.9111 23.1H97.1051C97.0049 22.3 96.4037 21.8999 95.5018 21.8999C94.3994 21.8999 94.0988 22.3999 94.0988 22.7999C94.0988 23.2999 94.2992 23.6 95.2011 23.7L96.8045 23.9999C99.8108 24.4999 100.011 26.4999 100.011 27.5999C100.011 29.3999 98.1073 30.7999 95.5018 30.7999C93.1969 30.8999 90.892 29.8999 90.6916 27.4999Z" fill="#9FA0A0"/>
<path d="M103.719 26.4V30.8H100.913V19.9H103.719V24H106.826V19.9H109.632V30.8H106.826V26.4H103.719Z" fill="#9FA0A0"/>
<path d="M110.834 25.4C110.834 22 112.838 19.8 115.845 19.8C118.851 19.8 120.855 22 120.855 25.4C120.855 28.8 118.951 31 115.845 31C112.738 30.9 110.834 28.8 110.834 25.4ZM117.749 25.4C117.749 23 116.947 22.1 115.744 22.1C114.642 22.1 113.74 23 113.74 25.4C113.74 27.7 114.542 28.6 115.744 28.6C116.947 28.6 117.749 27.8 117.749 25.4Z" fill="#9FA0A0"/>
<path d="M121.857 19.9H125.966C128.271 19.9 130.075 21.2 130.075 23.6C130.075 25.7 128.672 27 126.367 27H124.663V30.7H121.857V19.9ZM126.267 24.9C126.968 24.9 127.469 24.2 127.469 23.5C127.469 22.7 126.868 22.1 126.267 22.1H124.663V24.9H126.267Z" fill="#9FA0A0"/>
<path d="M10.422 10.2C11.6245 8.99996 13.2279 8.09996 15.0317 7.59996C16.0338 7.29996 16.9357 7.19996 17.9379 7.29996C18.94 6.39996 20.7438 5.29996 23.3493 4.99996C25.3535 4.79996 27.959 5.19996 29.6626 6.29996C31.5667 7.39996 32.9696 8.79996 33.9717 10.2C30.4643 2.69996 21.9463 -1.50004 13.6288 0.499958C9.41986 1.49996 6.01266 3.89996 3.60758 7.09996C2.9061 8.09996 2.30483 9.09996 1.80377 10.2H10.422Z" fill="#9FA0A0"/>
<path d="M3.5074 16H0.601257C0.601257 19 1.60337 21.9 3.5074 24.4V16Z" fill="#9FA0A0"/>
<path d="M10.422 25.2999H4.20886C6.11288 27.3999 8.8186 28.9999 12.5264 28.7999C13.729 28.6999 14.7311 28.3999 15.633 28.0999C13.6288 27.5999 11.825 26.6999 10.422 25.2999Z" fill="#9FA0A0"/>
<path d="M18.94 8.69993C20.2428 8.39993 22.7481 8.19993 24.8525 10.1999H30.4644C31.4665 10.1999 32.3684 10.4999 33.2703 10.9999C32.2682 9.59993 30.765 8.39993 28.7608 7.29993C27.1574 6.39993 25.3536 5.89993 23.4496 6.09993C20.9443 6.29993 19.4411 7.39993 18.6394 8.09993C18.439 8.39993 18.6394 8.79993 18.94 8.69993Z" fill="#9FA0A0"/>
<path d="M34.3726 20.1C33.2703 21.2 31.9675 21.7 30.5646 21.7H29.5625V25.3H25.3536C25.0529 26 24.8525 26.6 24.5519 26.9C22.6478 29.3 21.9464 27.1 21.7459 26.5C21.7459 26.5 21.7459 26.5 21.7459 26.4C21.4453 25.6 20.343 25.6 20.0423 26.3C19.4411 27.8 17.6373 29.7 12.7269 30.4C3.80805 31.5 0.801694 22.1 0 20.3C0.200423 22.1 0.701482 23.8 1.50318 25.6C4.70995 32.8 12.5265 37 20.4432 35.8C25.3536 35 29.4622 32.5 32.0677 28.8C32.4686 28.2 32.7692 27.7 33.0699 27.1C34.1722 25 35.3747 21.9 35.4749 18.6C35.1743 19.1 34.7735 19.6 34.3726 20.1Z" fill="#9FA0A0"/>
<path d="M11.4241 11.4999H1.30273V14.6999H4.70993V23.9999H8.01692V14.6999H11.4241V11.4999Z" fill="#9FA0A0"/>
<path d="M17.537 11.2999C15.7332 11.2999 14.23 11.8999 12.9273 13.1999C11.6245 14.4999 11.0233 15.9999 11.0233 17.8999C11.0233 19.6999 11.6245 21.2999 12.9273 22.5999C14.23 23.8999 15.7332 24.4999 17.537 24.4999C19.3408 24.4999 20.844 23.8999 22.1468 22.5999C23.3493 21.2999 24.0508 19.7999 24.0508 17.8999C24.0508 16.0999 23.4495 14.4999 22.1468 13.1999C20.9442 11.9999 19.3408 11.2999 17.537 11.2999ZM15.2321 15.4999C15.8334 14.7999 16.6351 14.4999 17.537 14.4999C18.4389 14.4999 19.2406 14.7999 19.8419 15.4999C20.4432 16.1999 20.7438 16.9999 20.7438 17.9999C20.7438 18.9999 20.4432 19.7999 19.8419 20.4999C19.2406 21.1999 18.4389 21.4999 17.537 21.4999C16.6351 21.4999 15.8334 21.1999 15.2321 20.4999C14.6309 19.7999 14.3302 18.9999 14.3302 17.9999C14.3302 16.9999 14.6309 16.1999 15.2321 15.4999Z" fill="#9FA0A0"/>
<path d="M33.4707 12.7004C32.5688 11.9004 31.6669 11.5004 30.5646 11.5004H25.0529V24.0004H28.2597V20.4004H30.5646C31.6669 20.4004 32.669 20.0004 33.4707 19.1004C34.3726 18.3004 34.7735 17.2004 34.7735 15.9004C34.7735 14.6004 34.2724 13.6004 33.4707 12.7004ZM28.2597 14.7004H30.4644C30.765 14.7004 30.9654 14.8004 31.266 15.0004C31.4665 15.2004 31.5667 15.5004 31.5667 16.0004C31.5667 16.5004 31.4665 16.8004 31.266 17.0004C30.9654 17.2004 30.765 17.3004 30.4644 17.3004H28.2597V14.7004Z" fill="#9FA0A0"/>
</g>
<defs>
<clipPath id="clip0_230_10203">
<rect width="142" height="36" fill="white"/>
</clipPath>
</defs>
</svg>
